<svg width="395" height="837" viewBox="0 0 395 837" fill="none" xmlns="http://www.w3.org/2000/svg">
<rect width="395" height="837" rx="25" fill="#606060"/>
<g clip-path="url(#clip0)">
<rect x="10" y="12" width="375" height="812" rx="20" fill="#FDFDFD"/>
<line x1="10" y1="104.5" x2="389" y2="104.5" stroke="black"/>
<path d="M27.3486 69.5947L41.7529 75.0635V80.9961L21.3184 71.8896V67.1777L41.7529 58.0957V64.0283L27.3486 69.5947Z" fill="black"/>
<path d="M94.5234 73.666L99.582 58.0938H103.383L96.2188 78H92.8691L85.7324 58.0938H89.5195L94.5234 73.666ZM104.066 70.4668C104.066 69.0176 104.354 67.7142 104.928 66.5566C105.502 65.39 106.309 64.4967 107.348 63.877C108.387 63.248 109.581 62.9336 110.93 62.9336C112.926 62.9336 114.544 63.5762 115.783 64.8613C117.032 66.1465 117.706 67.8509 117.807 69.9746L117.82 70.7539C117.82 72.2122 117.538 73.5156 116.973 74.6641C116.417 75.8125 115.615 76.7012 114.566 77.3301C113.527 77.959 112.324 78.2734 110.957 78.2734C108.87 78.2734 107.197 77.5807 105.939 76.1953C104.691 74.8008 104.066 72.946 104.066 70.6309V70.4668ZM107.389 70.7539C107.389 72.276 107.703 73.4701 108.332 74.3359C108.961 75.1927 109.836 75.6211 110.957 75.6211C112.078 75.6211 112.949 75.1836 113.568 74.3086C114.197 73.4336 114.512 72.153 114.512 70.4668C114.512 68.972 114.188 67.7871 113.541 66.9121C112.903 66.0371 112.033 65.5996 110.93 65.5996C109.845 65.5996 108.984 66.0326 108.346 66.8984C107.708 67.7552 107.389 69.0404 107.389 70.7539ZM124.164 78H120.842V57H124.164V78ZM136.756 76.5508C135.781 77.6992 134.395 78.2734 132.6 78.2734C130.995 78.2734 129.779 77.804 128.949 76.8652C128.129 75.9264 127.719 74.5684 127.719 72.791V63.207H131.041V72.75C131.041 74.6276 131.82 75.5664 133.379 75.5664C134.992 75.5664 136.081 74.9876 136.646 73.8301V63.207H139.969V78H136.838L136.756 76.5508ZM146.436 63.207L146.531 64.916C147.625 63.5944 149.061 62.9336 150.838 62.9336C153.919 62.9336 155.486 64.6973 155.541 68.2246V78H152.219V68.416C152.219 67.4772 152.014 66.7845 151.604 66.3379C151.202 65.8822 150.542 65.6543 149.621 65.6543C148.281 65.6543 147.283 66.2604 146.627 67.4727V78H143.305V63.207H146.436ZM163.102 59.6113V63.207H165.713V65.668H163.102V73.9258C163.102 74.4909 163.211 74.901 163.43 75.1562C163.658 75.4023 164.059 75.5254 164.633 75.5254C165.016 75.5254 165.403 75.4798 165.795 75.3887V77.959C165.038 78.1686 164.309 78.2734 163.607 78.2734C161.055 78.2734 159.779 76.8652 159.779 74.0488V65.668H157.346V63.207H159.779V59.6113H163.102ZM174.777 78.2734C172.672 78.2734 170.963 77.6126 169.65 76.291C168.347 74.9603 167.695 73.1921 167.695 70.9863V70.5762C167.695 69.0996 167.978 67.7826 168.543 66.625C169.117 65.4583 169.919 64.5514 170.949 63.9043C171.979 63.2572 173.128 62.9336 174.395 62.9336C176.409 62.9336 177.963 63.5762 179.057 64.8613C180.16 66.1465 180.711 67.9648 180.711 70.3164V71.6562H171.045C171.145 72.8776 171.551 73.8438 172.262 74.5547C172.982 75.2656 173.884 75.6211 174.969 75.6211C176.491 75.6211 177.73 75.0059 178.688 73.7754L180.479 75.4844C179.886 76.3685 179.093 77.0566 178.1 77.5488C177.115 78.0319 176.008 78.2734 174.777 78.2734ZM174.381 65.5996C173.469 65.5996 172.731 65.9186 172.166 66.5566C171.61 67.1947 171.255 68.0833 171.1 69.2227H177.43V68.9766C177.357 67.8646 177.061 67.026 176.541 66.4609C176.021 65.8867 175.301 65.5996 174.381 65.5996ZM189.816 78.2734C187.711 78.2734 186.002 77.6126 184.689 76.291C183.386 74.9603 182.734 73.1921 182.734 70.9863V70.5762C182.734 69.0996 183.017 67.7826 183.582 66.625C184.156 65.4583 184.958 64.5514 185.988 63.9043C187.018 63.2572 188.167 62.9336 189.434 62.9336C191.448 62.9336 193.002 63.5762 194.096 64.8613C195.199 66.1465 195.75 67.9648 195.75 70.3164V71.6562H186.084C186.184 72.8776 186.59 73.8438 187.301 74.5547C188.021 75.2656 188.923 75.6211 190.008 75.6211C191.53 75.6211 192.77 75.0059 193.727 73.7754L195.518 75.4844C194.925 76.3685 194.132 77.0566 193.139 77.5488C192.154 78.0319 191.047 78.2734 189.816 78.2734ZM189.42 65.5996C188.508 65.5996 187.77 65.9186 187.205 66.5566C186.649 67.1947 186.294 68.0833 186.139 69.2227H192.469V68.9766C192.396 67.8646 192.1 67.026 191.58 66.4609C191.061 65.8867 190.34 65.5996 189.42 65.5996ZM206.086 66.2422C205.648 66.1693 205.197 66.1328 204.732 66.1328C203.21 66.1328 202.185 66.7161 201.656 67.8828V78H198.334V63.207H201.506L201.588 64.8613C202.39 63.5762 203.502 62.9336 204.924 62.9336C205.398 62.9336 205.79 62.9974 206.1 63.125L206.086 66.2422ZM225.883 72.873C225.883 71.998 225.573 71.3236 224.953 70.8496C224.342 70.3757 223.235 69.8971 221.631 69.4141C220.027 68.931 218.751 68.3932 217.803 67.8008C215.989 66.6615 215.082 65.1758 215.082 63.3438C215.082 61.7396 215.734 60.418 217.037 59.3789C218.35 58.3398 220.049 57.8203 222.137 57.8203C223.522 57.8203 224.757 58.0755 225.842 58.5859C226.926 59.0964 227.779 59.8255 228.398 60.7734C229.018 61.7122 229.328 62.7559 229.328 63.9043H225.883C225.883 62.8652 225.555 62.054 224.898 61.4707C224.251 60.8783 223.322 60.582 222.109 60.582C220.979 60.582 220.1 60.8236 219.471 61.3066C218.851 61.7897 218.541 62.4642 218.541 63.3301C218.541 64.0592 218.878 64.6699 219.553 65.1621C220.227 65.6452 221.339 66.1191 222.889 66.584C224.438 67.0397 225.682 67.5638 226.621 68.1562C227.56 68.7396 228.248 69.4141 228.686 70.1797C229.123 70.9362 229.342 71.8249 229.342 72.8457C229.342 74.5046 228.704 75.8262 227.428 76.8105C226.161 77.7858 224.438 78.2734 222.26 78.2734C220.82 78.2734 219.493 78.0091 218.281 77.4805C217.078 76.9427 216.139 76.2044 215.465 75.2656C214.799 74.3268 214.467 73.2331 214.467 71.9844H217.926C217.926 73.1146 218.299 73.9896 219.047 74.6094C219.794 75.2292 220.865 75.5391 222.26 75.5391C223.463 75.5391 224.365 75.2975 224.967 74.8145C225.577 74.3223 225.883 73.6751 225.883 72.873ZM235.59 78H232.268V63.207H235.59V78ZM232.062 59.3652C232.062 58.8548 232.222 58.431 232.541 58.0938C232.869 57.7565 233.334 57.5879 233.936 57.5879C234.537 57.5879 235.002 57.7565 235.33 58.0938C235.658 58.431 235.822 58.8548 235.822 59.3652C235.822 59.8665 235.658 60.2858 235.33 60.623C235.002 60.9512 234.537 61.1152 233.936 61.1152C233.334 61.1152 232.869 60.9512 232.541 60.623C232.222 60.2858 232.062 59.8665 232.062 59.3652ZM238.639 70.4941C238.639 68.1973 239.176 66.3652 240.252 64.998C241.337 63.6217 242.772 62.9336 244.559 62.9336C246.245 62.9336 247.571 63.5215 248.537 64.6973L248.688 63.207H251.682V77.5488C251.682 79.4902 251.076 81.0215 249.863 82.1426C248.66 83.2637 247.033 83.8242 244.982 83.8242C243.898 83.8242 242.836 83.5964 241.797 83.1406C240.767 82.694 239.983 82.1061 239.445 81.377L241.018 79.3809C242.038 80.5931 243.296 81.1992 244.791 81.1992C245.894 81.1992 246.764 80.8984 247.402 80.2969C248.04 79.7044 248.359 78.8294 248.359 77.6719V76.6738C247.402 77.7402 246.126 78.2734 244.531 78.2734C242.799 78.2734 241.382 77.5853 240.279 76.209C239.186 74.8327 238.639 72.9277 238.639 70.4941ZM241.947 70.7812C241.947 72.2669 242.248 73.4382 242.85 74.2949C243.46 75.1426 244.303 75.5664 245.379 75.5664C246.719 75.5664 247.712 74.9922 248.359 73.8438V67.3359C247.73 66.2148 246.746 65.6543 245.406 65.6543C244.312 65.6543 243.46 66.0872 242.85 66.9531C242.248 67.819 241.947 69.0951 241.947 70.7812ZM258.189 63.207L258.285 64.916C259.379 63.5944 260.814 62.9336 262.592 62.9336C265.673 62.9336 267.24 64.6973 267.295 68.2246V78H263.973V68.416C263.973 67.4772 263.768 66.7845 263.357 66.3379C262.956 65.8822 262.296 65.6543 261.375 65.6543C260.035 65.6543 259.037 66.2604 258.381 67.4727V78H255.059V63.207H258.189ZM277.139 70.877H269.961V68.1973H277.139V70.877ZM288.842 76.5508C287.867 77.6992 286.481 78.2734 284.686 78.2734C283.081 78.2734 281.865 77.804 281.035 76.8652C280.215 75.9264 279.805 74.5684 279.805 72.791V63.207H283.127V72.75C283.127 74.6276 283.906 75.5664 285.465 75.5664C287.078 75.5664 288.167 74.9876 288.732 73.8301V63.207H292.055V78H288.924L288.842 76.5508ZM308.393 70.7539C308.393 73.0417 307.873 74.8691 306.834 76.2363C305.795 77.5944 304.4 78.2734 302.65 78.2734C301.028 78.2734 299.729 77.7402 298.754 76.6738V83.6875H295.432V63.207H298.494L298.631 64.7109C299.606 63.526 300.932 62.9336 302.609 62.9336C304.414 62.9336 305.827 63.6081 306.848 64.957C307.878 66.2969 308.393 68.1608 308.393 70.5488V70.7539ZM305.084 70.4668C305.084 68.9902 304.788 67.819 304.195 66.9531C303.612 66.0872 302.773 65.6543 301.68 65.6543C300.322 65.6543 299.346 66.2148 298.754 67.3359V73.8984C299.355 75.0469 300.34 75.6211 301.707 75.6211C302.764 75.6211 303.589 75.1973 304.182 74.3496C304.783 73.4928 305.084 72.1986 305.084 70.4668Z" fill="black"/>
<path d="M44.3594 201.117H49.3359V203H42.0156V191.625H44.3594V201.117ZM50.1875 198.695C50.1875 197.857 50.349 197.109 50.6719 196.453C50.9948 195.797 51.4583 195.289 52.0625 194.93C52.6719 194.57 53.3776 194.391 54.1797 194.391C55.3203 194.391 56.25 194.74 56.9688 195.438C57.6927 196.135 58.0964 197.083 58.1797 198.281L58.1953 198.859C58.1953 200.156 57.8333 201.198 57.1094 201.984C56.3854 202.766 55.4141 203.156 54.1953 203.156C52.9766 203.156 52.0026 202.766 51.2734 201.984C50.5495 201.203 50.1875 200.141 50.1875 198.797V198.695ZM52.4453 198.859C52.4453 199.661 52.5964 200.276 52.8984 200.703C53.2005 201.125 53.6328 201.336 54.1953 201.336C54.7422 201.336 55.1693 201.128 55.4766 200.711C55.7839 200.289 55.9375 199.617 55.9375 198.695C55.9375 197.909 55.7839 197.299 55.4766 196.867C55.1693 196.435 54.737 196.219 54.1797 196.219C53.6276 196.219 53.2005 196.435 52.8984 196.867C52.5964 197.294 52.4453 197.958 52.4453 198.859ZM63.1016 201.336C63.5182 201.336 63.8568 201.221 64.1172 200.992C64.3776 200.763 64.513 200.458 64.5234 200.078H66.6406C66.6354 200.651 66.4792 201.177 66.1719 201.656C65.8646 202.13 65.4427 202.5 64.9062 202.766C64.375 203.026 63.7865 203.156 63.1406 203.156C61.9323 203.156 60.9792 202.773 60.2812 202.008C59.5833 201.237 59.2344 200.174 59.2344 198.82V198.672C59.2344 197.37 59.5807 196.331 60.2734 195.555C60.9661 194.779 61.9167 194.391 63.125 194.391C64.1823 194.391 65.0286 194.693 65.6641 195.297C66.3047 195.896 66.6302 196.695 66.6406 197.695H64.5234C64.513 197.258 64.3776 196.904 64.1172 196.633C63.8568 196.357 63.513 196.219 63.0859 196.219C62.5599 196.219 62.1615 196.411 61.8906 196.797C61.625 197.177 61.4922 197.797 61.4922 198.656V198.891C61.4922 199.76 61.625 200.385 61.8906 200.766C62.1562 201.146 62.5599 201.336 63.1016 201.336ZM72.8281 203C72.724 202.797 72.6484 202.544 72.6016 202.242C72.0547 202.852 71.3438 203.156 70.4688 203.156C69.6406 203.156 68.9531 202.917 68.4062 202.438C67.8646 201.958 67.5938 201.354 67.5938 200.625C67.5938 199.729 67.9245 199.042 68.5859 198.562C69.2526 198.083 70.2135 197.841 71.4688 197.836H72.5078V197.352C72.5078 196.961 72.4062 196.648 72.2031 196.414C72.0052 196.18 71.6901 196.062 71.2578 196.062C70.8776 196.062 70.5781 196.154 70.3594 196.336C70.1458 196.518 70.0391 196.768 70.0391 197.086H67.7812C67.7812 196.596 67.9323 196.143 68.2344 195.727C68.5365 195.31 68.9635 194.984 69.5156 194.75C70.0677 194.51 70.6875 194.391 71.375 194.391C72.4167 194.391 73.2422 194.654 73.8516 195.18C74.4661 195.701 74.7734 196.435 74.7734 197.383V201.047C74.7786 201.849 74.8906 202.456 75.1094 202.867V203H72.8281ZM70.9609 201.43C71.2943 201.43 71.6016 201.357 71.8828 201.211C72.1641 201.06 72.3724 200.859 72.5078 200.609V199.156H71.6641C70.5339 199.156 69.9323 199.547 69.8594 200.328L69.8516 200.461C69.8516 200.742 69.9505 200.974 70.1484 201.156C70.3464 201.339 70.6172 201.43 70.9609 201.43ZM79.2109 192.469V194.547H80.6562V196.203H79.2109V200.422C79.2109 200.734 79.2708 200.958 79.3906 201.094C79.5104 201.229 79.7396 201.297 80.0781 201.297C80.3281 201.297 80.5495 201.279 80.7422 201.242V202.953C80.2995 203.089 79.8438 203.156 79.375 203.156C77.7917 203.156 76.9844 202.357 76.9531 200.758V196.203H75.7188V194.547H76.9531V192.469H79.2109ZM84.2969 203H82.0312V194.547H84.2969V203ZM81.8984 192.359C81.8984 192.021 82.0104 191.742 82.2344 191.523C82.4635 191.305 82.7734 191.195 83.1641 191.195C83.5495 191.195 83.8568 191.305 84.0859 191.523C84.3151 191.742 84.4297 192.021 84.4297 192.359C84.4297 192.703 84.3125 192.984 84.0781 193.203C83.849 193.422 83.5443 193.531 83.1641 193.531C82.7839 193.531 82.4766 193.422 82.2422 193.203C82.013 192.984 81.8984 192.703 81.8984 192.359ZM85.8125 198.695C85.8125 197.857 85.974 197.109 86.2969 196.453C86.6198 195.797 87.0833 195.289 87.6875 194.93C88.2969 194.57 89.0026 194.391 89.8047 194.391C90.9453 194.391 91.875 194.74 92.5938 195.438C93.3177 196.135 93.7214 197.083 93.8047 198.281L93.8203 198.859C93.8203 200.156 93.4583 201.198 92.7344 201.984C92.0104 202.766 91.0391 203.156 89.8203 203.156C88.6016 203.156 87.6276 202.766 86.8984 201.984C86.1745 201.203 85.8125 200.141 85.8125 198.797V198.695ZM88.0703 198.859C88.0703 199.661 88.2214 200.276 88.5234 200.703C88.8255 201.125 89.2578 201.336 89.8203 201.336C90.3672 201.336 90.7943 201.128 91.1016 200.711C91.4089 200.289 91.5625 199.617 91.5625 198.695C91.5625 197.909 91.4089 197.299 91.1016 196.867C90.7943 196.435 90.362 196.219 89.8047 196.219C89.2526 196.219 88.8255 196.435 88.5234 196.867C88.2214 197.294 88.0703 197.958 88.0703 198.859ZM97.2891 194.547L97.3594 195.523C97.9635 194.768 98.7734 194.391 99.7891 194.391C100.685 194.391 101.352 194.654 101.789 195.18C102.227 195.706 102.451 196.492 102.461 197.539V203H100.203V197.594C100.203 197.115 100.099 196.768 99.8906 196.555C99.6823 196.336 99.3359 196.227 98.8516 196.227C98.2161 196.227 97.7396 196.497 97.4219 197.039V203H95.1641V194.547H97.2891ZM104.289 201.891C104.289 201.531 104.409 201.24 104.648 201.016C104.893 200.792 105.198 200.68 105.562 200.68C105.932 200.68 106.237 200.792 106.477 201.016C106.721 201.24 106.844 201.531 106.844 201.891C106.844 202.245 106.724 202.534 106.484 202.758C106.245 202.977 105.938 203.086 105.562 203.086C105.193 203.086 104.888 202.977 104.648 202.758C104.409 202.534 104.289 202.245 104.289 201.891ZM104.289 195.492C104.289 195.133 104.409 194.841 104.648 194.617C104.893 194.393 105.198 194.281 105.562 194.281C105.932 194.281 106.237 194.393 106.477 194.617C106.721 194.841 106.844 195.133 106.844 195.492C106.844 195.846 106.724 196.135 106.484 196.359C106.245 196.578 105.938 196.688 105.562 196.688C105.193 196.688 104.888 196.578 104.648 196.359C104.409 196.135 104.289 195.846 104.289 195.492Z" fill="black"/>
<path d="M68.4746 231.927H73.1914V233H67.1553V223.047H68.4746V231.927ZM74.1553 229.233C74.1553 228.509 74.2965 227.857 74.5791 227.278C74.8662 226.7 75.2627 226.253 75.7686 225.938C76.279 225.624 76.86 225.467 77.5117 225.467C78.5189 225.467 79.3324 225.815 79.9521 226.513C80.5765 227.21 80.8887 228.137 80.8887 229.295V229.384C80.8887 230.104 80.7497 230.751 80.4717 231.325C80.1982 231.895 79.804 232.339 79.2891 232.658C78.7786 232.977 78.1908 233.137 77.5254 233.137C76.5228 233.137 75.7093 232.788 75.085 232.091C74.4652 231.394 74.1553 230.471 74.1553 229.322V229.233ZM75.4268 229.384C75.4268 230.204 75.6159 230.863 75.9941 231.359C76.377 231.856 76.8874 232.104 77.5254 232.104C78.168 232.104 78.6784 231.854 79.0566 231.353C79.4349 230.847 79.624 230.14 79.624 229.233C79.624 228.422 79.4303 227.766 79.043 227.265C78.6602 226.759 78.1497 226.506 77.5117 226.506C76.8874 226.506 76.3838 226.754 76.001 227.251C75.6182 227.748 75.4268 228.459 75.4268 229.384ZM86.0498 226.738C85.8584 226.706 85.651 226.69 85.4277 226.69C84.5983 226.69 84.0355 227.044 83.7393 227.75V233H82.4746V225.604H83.7051L83.7256 226.458C84.1403 225.797 84.7282 225.467 85.4893 225.467C85.7354 225.467 85.9222 225.499 86.0498 225.562V226.738ZM90.1514 233.137C89.1488 233.137 88.333 232.809 87.7041 232.152C87.0752 231.492 86.7607 230.61 86.7607 229.507V229.274C86.7607 228.541 86.8997 227.887 87.1777 227.312C87.4603 226.734 87.8522 226.283 88.3535 225.959C88.8594 225.631 89.4062 225.467 89.9941 225.467C90.9557 225.467 91.7031 225.784 92.2363 226.417C92.7695 227.05 93.0361 227.957 93.0361 229.138V229.664H88.0254C88.0436 230.393 88.2555 230.983 88.6611 231.435C89.0713 231.881 89.5908 232.104 90.2197 232.104C90.6663 232.104 91.0446 232.013 91.3545 231.831C91.6644 231.649 91.9355 231.407 92.168 231.106L92.9404 231.708C92.3206 232.66 91.391 233.137 90.1514 233.137ZM89.9941 226.506C89.4837 226.506 89.0553 226.693 88.709 227.066C88.3626 227.436 88.1484 227.955 88.0664 228.625H91.7715V228.529C91.735 227.887 91.5618 227.39 91.252 227.039C90.9421 226.684 90.5228 226.506 89.9941 226.506ZM95.6953 225.604L95.7295 226.424C96.2718 225.786 97.0033 225.467 97.9238 225.467C98.9583 225.467 99.6624 225.863 100.036 226.656C100.282 226.301 100.601 226.014 100.993 225.795C101.39 225.576 101.857 225.467 102.395 225.467C104.017 225.467 104.842 226.326 104.869 228.044V233H103.604V228.119C103.604 227.59 103.484 227.196 103.242 226.937C103.001 226.672 102.595 226.54 102.025 226.54C101.556 226.54 101.166 226.681 100.856 226.964C100.547 227.242 100.367 227.618 100.316 228.092V233H99.0449V228.153C99.0449 227.078 98.5186 226.54 97.4658 226.54C96.6364 226.54 96.069 226.893 95.7637 227.6V233H94.499V225.604H95.6953ZM111.63 233H110.365V225.604H111.63V233ZM110.263 223.642C110.263 223.437 110.324 223.263 110.447 223.122C110.575 222.981 110.762 222.91 111.008 222.91C111.254 222.91 111.441 222.981 111.568 223.122C111.696 223.263 111.76 223.437 111.76 223.642C111.76 223.847 111.696 224.018 111.568 224.154C111.441 224.291 111.254 224.359 111.008 224.359C110.762 224.359 110.575 224.291 110.447 224.154C110.324 224.018 110.263 223.847 110.263 223.642ZM119.908 229.384C119.908 230.509 119.651 231.416 119.136 232.104C118.621 232.793 117.924 233.137 117.044 233.137C116.146 233.137 115.44 232.852 114.925 232.282V235.844H113.66V225.604H114.815L114.877 226.424C115.392 225.786 116.107 225.467 117.023 225.467C117.912 225.467 118.614 225.802 119.129 226.472C119.648 227.142 119.908 228.074 119.908 229.268V229.384ZM118.644 229.24C118.644 228.406 118.466 227.748 118.11 227.265C117.755 226.782 117.267 226.54 116.647 226.54C115.882 226.54 115.308 226.88 114.925 227.559V231.093C115.303 231.767 115.882 232.104 116.661 232.104C117.267 232.104 117.748 231.865 118.104 231.387C118.464 230.904 118.644 230.188 118.644 229.24ZM125.828 231.038C125.828 230.696 125.698 230.432 125.438 230.245C125.183 230.054 124.734 229.89 124.092 229.753C123.454 229.616 122.946 229.452 122.567 229.261C122.194 229.069 121.916 228.841 121.733 228.577C121.556 228.313 121.467 227.998 121.467 227.634C121.467 227.028 121.722 226.515 122.232 226.096C122.747 225.676 123.404 225.467 124.201 225.467C125.04 225.467 125.719 225.683 126.238 226.116C126.762 226.549 127.024 227.103 127.024 227.777H125.753C125.753 227.431 125.605 227.132 125.309 226.882C125.017 226.631 124.648 226.506 124.201 226.506C123.741 226.506 123.381 226.606 123.121 226.807C122.861 227.007 122.731 227.269 122.731 227.593C122.731 227.898 122.852 228.128 123.094 228.283C123.335 228.438 123.771 228.586 124.399 228.728C125.033 228.869 125.546 229.037 125.938 229.233C126.329 229.429 126.619 229.666 126.806 229.944C126.997 230.218 127.093 230.553 127.093 230.949C127.093 231.61 126.828 232.141 126.3 232.542C125.771 232.938 125.085 233.137 124.242 233.137C123.65 233.137 123.126 233.032 122.67 232.822C122.214 232.613 121.856 232.321 121.597 231.947C121.341 231.569 121.214 231.161 121.214 230.724H122.479C122.501 231.147 122.67 231.485 122.984 231.735C123.303 231.981 123.723 232.104 124.242 232.104C124.721 232.104 125.104 232.009 125.391 231.817C125.682 231.621 125.828 231.362 125.828 231.038ZM133.307 232.269C132.814 232.847 132.092 233.137 131.14 233.137C130.351 233.137 129.75 232.909 129.335 232.453C128.925 231.993 128.717 231.314 128.713 230.416V225.604H129.978V230.382C129.978 231.503 130.433 232.063 131.345 232.063C132.311 232.063 132.953 231.703 133.272 230.983V225.604H134.537V233H133.334L133.307 232.269ZM137.654 225.604L137.688 226.424C138.231 225.786 138.962 225.467 139.883 225.467C140.917 225.467 141.621 225.863 141.995 226.656C142.241 226.301 142.56 226.014 142.952 225.795C143.349 225.576 143.816 225.467 144.354 225.467C145.976 225.467 146.801 226.326 146.828 228.044V233H145.563V228.119C145.563 227.59 145.443 227.196 145.201 226.937C144.96 226.672 144.554 226.54 143.984 226.54C143.515 226.54 143.125 226.681 142.815 226.964C142.506 227.242 142.326 227.618 142.275 228.092V233H141.004V228.153C141.004 227.078 140.478 226.54 139.425 226.54C138.595 226.54 138.028 226.893 137.723 227.6V233H136.458V225.604H137.654ZM151.907 229.24C151.907 228.105 152.176 227.194 152.714 226.506C153.252 225.813 153.956 225.467 154.826 225.467C155.692 225.467 156.378 225.763 156.884 226.355V222.5H158.148V233H156.986L156.925 232.207C156.419 232.827 155.715 233.137 154.812 233.137C153.956 233.137 153.256 232.786 152.714 232.084C152.176 231.382 151.907 230.466 151.907 229.336V229.24ZM153.172 229.384C153.172 230.222 153.345 230.879 153.691 231.353C154.038 231.826 154.516 232.063 155.127 232.063C155.929 232.063 156.515 231.703 156.884 230.983V227.586C156.506 226.889 155.924 226.54 155.141 226.54C154.521 226.54 154.038 226.779 153.691 227.258C153.345 227.736 153.172 228.445 153.172 229.384ZM159.782 229.233C159.782 228.509 159.924 227.857 160.206 227.278C160.493 226.7 160.89 226.253 161.396 225.938C161.906 225.624 162.487 225.467 163.139 225.467C164.146 225.467 164.959 225.815 165.579 226.513C166.203 227.21 166.516 228.137 166.516 229.295V229.384C166.516 230.104 166.377 230.751 166.099 231.325C165.825 231.895 165.431 232.339 164.916 232.658C164.406 232.977 163.818 233.137 163.152 233.137C162.15 233.137 161.336 232.788 160.712 232.091C160.092 231.394 159.782 230.471 159.782 229.322V229.233ZM161.054 229.384C161.054 230.204 161.243 230.863 161.621 231.359C162.004 231.856 162.514 232.104 163.152 232.104C163.795 232.104 164.305 231.854 164.684 231.353C165.062 230.847 165.251 230.14 165.251 229.233C165.251 228.422 165.057 227.766 164.67 227.265C164.287 226.759 163.777 226.506 163.139 226.506C162.514 226.506 162.011 226.754 161.628 227.251C161.245 227.748 161.054 228.459 161.054 229.384ZM169.476 233H168.211V222.5H169.476V233ZM171.171 229.233C171.171 228.509 171.312 227.857 171.595 227.278C171.882 226.7 172.278 226.253 172.784 225.938C173.295 225.624 173.876 225.467 174.527 225.467C175.535 225.467 176.348 225.815 176.968 226.513C177.592 227.21 177.904 228.137 177.904 229.295V229.384C177.904 230.104 177.765 230.751 177.487 231.325C177.214 231.895 176.82 232.339 176.305 232.658C175.794 232.977 175.206 233.137 174.541 233.137C173.538 233.137 172.725 232.788 172.101 232.091C171.481 231.394 171.171 230.471 171.171 229.322V229.233ZM172.442 229.384C172.442 230.204 172.632 230.863 173.01 231.359C173.393 231.856 173.903 232.104 174.541 232.104C175.184 232.104 175.694 231.854 176.072 231.353C176.451 230.847 176.64 230.14 176.64 229.233C176.64 228.422 176.446 227.766 176.059 227.265C175.676 226.759 175.165 226.506 174.527 226.506C173.903 226.506 173.399 226.754 173.017 227.251C172.634 227.748 172.442 228.459 172.442 229.384ZM183.065 226.738C182.874 226.706 182.667 226.69 182.443 226.69C181.614 226.69 181.051 227.044 180.755 227.75V233H179.49V225.604H180.721L180.741 226.458C181.156 225.797 181.744 225.467 182.505 225.467C182.751 225.467 182.938 225.499 183.065 225.562V226.738ZM192.014 231.038C192.014 230.696 191.884 230.432 191.624 230.245C191.369 230.054 190.92 229.89 190.277 229.753C189.639 229.616 189.131 229.452 188.753 229.261C188.379 229.069 188.101 228.841 187.919 228.577C187.741 228.313 187.652 227.998 187.652 227.634C187.652 227.028 187.908 226.515 188.418 226.096C188.933 225.676 189.589 225.467 190.387 225.467C191.225 225.467 191.904 225.683 192.424 226.116C192.948 226.549 193.21 227.103 193.21 227.777H191.938C191.938 227.431 191.79 227.132 191.494 226.882C191.202 226.631 190.833 226.506 190.387 226.506C189.926 226.506 189.566 226.606 189.307 226.807C189.047 227.007 188.917 227.269 188.917 227.593C188.917 227.898 189.038 228.128 189.279 228.283C189.521 228.438 189.956 228.586 190.585 228.728C191.218 228.869 191.731 229.037 192.123 229.233C192.515 229.429 192.804 229.666 192.991 229.944C193.183 230.218 193.278 230.553 193.278 230.949C193.278 231.61 193.014 232.141 192.485 232.542C191.957 232.938 191.271 233.137 190.428 233.137C189.835 233.137 189.311 233.032 188.855 232.822C188.4 232.613 188.042 232.321 187.782 231.947C187.527 231.569 187.399 231.161 187.399 230.724H188.664C188.687 231.147 188.855 231.485 189.17 231.735C189.489 231.981 189.908 232.104 190.428 232.104C190.906 232.104 191.289 232.009 191.576 231.817C191.868 231.621 192.014 231.362 192.014 231.038ZM196.3 233H195.035V225.604H196.3V233ZM194.933 223.642C194.933 223.437 194.994 223.263 195.117 223.122C195.245 222.981 195.432 222.91 195.678 222.91C195.924 222.91 196.111 222.981 196.238 223.122C196.366 223.263 196.43 223.437 196.43 223.642C196.43 223.847 196.366 224.018 196.238 224.154C196.111 224.291 195.924 224.359 195.678 224.359C195.432 224.359 195.245 224.291 195.117 224.154C194.994 224.018 194.933 223.847 194.933 223.642ZM200.046 223.812V225.604H201.427V226.581H200.046V231.168C200.046 231.464 200.107 231.688 200.23 231.838C200.354 231.984 200.563 232.057 200.859 232.057C201.005 232.057 201.206 232.029 201.461 231.975V233C201.128 233.091 200.805 233.137 200.49 233.137C199.925 233.137 199.499 232.966 199.212 232.624C198.925 232.282 198.781 231.797 198.781 231.168V226.581H197.435V225.604H198.781V223.812H200.046ZM210.949 233C210.876 232.854 210.817 232.594 210.771 232.221C210.184 232.831 209.482 233.137 208.666 233.137C207.937 233.137 207.338 232.932 206.868 232.521C206.403 232.107 206.171 231.583 206.171 230.949C206.171 230.179 206.463 229.582 207.046 229.158C207.634 228.73 208.459 228.516 209.521 228.516H210.751V227.935C210.751 227.493 210.619 227.142 210.354 226.882C210.09 226.618 209.701 226.485 209.186 226.485C208.734 226.485 208.356 226.599 208.051 226.827C207.745 227.055 207.593 227.331 207.593 227.654H206.321C206.321 227.285 206.451 226.93 206.711 226.588C206.975 226.242 207.331 225.968 207.777 225.768C208.229 225.567 208.723 225.467 209.261 225.467C210.113 225.467 210.781 225.681 211.264 226.109C211.747 226.533 211.997 227.119 212.016 227.866V231.271C212.016 231.95 212.102 232.49 212.275 232.891V233H210.949ZM208.851 232.036C209.247 232.036 209.623 231.934 209.979 231.729C210.334 231.523 210.591 231.257 210.751 230.929V229.411H209.76C208.21 229.411 207.436 229.865 207.436 230.771C207.436 231.168 207.568 231.478 207.832 231.701C208.096 231.924 208.436 232.036 208.851 232.036ZM215.188 225.604L215.222 226.424C215.764 225.786 216.495 225.467 217.416 225.467C218.451 225.467 219.155 225.863 219.528 226.656C219.774 226.301 220.093 226.014 220.485 225.795C220.882 225.576 221.349 225.467 221.887 225.467C223.509 225.467 224.334 226.326 224.361 228.044V233H223.097V228.119C223.097 227.59 222.976 227.196 222.734 226.937C222.493 226.672 222.087 226.54 221.518 226.54C221.048 226.54 220.659 226.681 220.349 226.964C220.039 227.242 219.859 227.618 219.809 228.092V233H218.537V228.153C218.537 227.078 218.011 226.54 216.958 226.54C216.129 226.54 215.561 226.893 215.256 227.6V233H213.991V225.604H215.188ZM229.345 233.137C228.342 233.137 227.526 232.809 226.897 232.152C226.269 231.492 225.954 230.61 225.954 229.507V229.274C225.954 228.541 226.093 227.887 226.371 227.312C226.654 226.734 227.046 226.283 227.547 225.959C228.053 225.631 228.6 225.467 229.188 225.467C230.149 225.467 230.896 225.784 231.43 226.417C231.963 227.05 232.229 227.957 232.229 229.138V229.664H227.219C227.237 230.393 227.449 230.983 227.854 231.435C228.265 231.881 228.784 232.104 229.413 232.104C229.86 232.104 230.238 232.013 230.548 231.831C230.858 231.649 231.129 231.407 231.361 231.106L232.134 231.708C231.514 232.66 230.584 233.137 229.345 233.137ZM229.188 226.506C228.677 226.506 228.249 226.693 227.902 227.066C227.556 227.436 227.342 227.955 227.26 228.625H230.965V228.529C230.928 227.887 230.755 227.39 230.445 227.039C230.135 226.684 229.716 226.506 229.188 226.506ZM235.415 223.812V225.604H236.796V226.581H235.415V231.168C235.415 231.464 235.477 231.688 235.6 231.838C235.723 231.984 235.932 232.057 236.229 232.057C236.374 232.057 236.575 232.029 236.83 231.975V233C236.497 233.091 236.174 233.137 235.859 233.137C235.294 233.137 234.868 232.966 234.581 232.624C234.294 232.282 234.15 231.797 234.15 231.168V226.581H232.804V225.604H234.15V223.812H235.415Z" fill="black"/>
<path d="M50.5781 126.523H47.0938V136H44.75V126.523H41.3125V124.625H50.5781V126.523ZM56.0078 129.664C55.7005 129.622 55.4297 129.602 55.1953 129.602C54.3411 129.602 53.7812 129.891 53.5156 130.469V136H51.2578V127.547H53.3906L53.4531 128.555C53.9062 127.779 54.5339 127.391 55.3359 127.391C55.5859 127.391 55.8203 127.424 56.0391 127.492L56.0078 129.664ZM61.7656 136C61.6615 135.797 61.5859 135.544 61.5391 135.242C60.9922 135.852 60.2812 136.156 59.4062 136.156C58.5781 136.156 57.8906 135.917 57.3438 135.438C56.8021 134.958 56.5312 134.354 56.5312 133.625C56.5312 132.729 56.862 132.042 57.5234 131.562C58.1901 131.083 59.151 130.841 60.4062 130.836H61.4453V130.352C61.4453 129.961 61.3438 129.648 61.1406 129.414C60.9427 129.18 60.6276 129.062 60.1953 129.062C59.8151 129.062 59.5156 129.154 59.2969 129.336C59.0833 129.518 58.9766 129.768 58.9766 130.086H56.7188C56.7188 129.596 56.8698 129.143 57.1719 128.727C57.474 128.31 57.901 127.984 58.4531 127.75C59.0052 127.51 59.625 127.391 60.3125 127.391C61.3542 127.391 62.1797 127.654 62.7891 128.18C63.4036 128.701 63.7109 129.435 63.7109 130.383V134.047C63.7161 134.849 63.8281 135.456 64.0469 135.867V136H61.7656ZM59.8984 134.43C60.2318 134.43 60.5391 134.357 60.8203 134.211C61.1016 134.06 61.3099 133.859 61.4453 133.609V132.156H60.6016C59.4714 132.156 58.8698 132.547 58.7969 133.328L58.7891 133.461C58.7891 133.742 58.888 133.974 59.0859 134.156C59.2839 134.339 59.5547 134.43 59.8984 134.43ZM67.8281 136H65.5625V127.547H67.8281V136ZM65.4297 125.359C65.4297 125.021 65.5417 124.742 65.7656 124.523C65.9948 124.305 66.3047 124.195 66.6953 124.195C67.0807 124.195 67.388 124.305 67.6172 124.523C67.8464 124.742 67.9609 125.021 67.9609 125.359C67.9609 125.703 67.8438 125.984 67.6094 126.203C67.3802 126.422 67.0755 126.531 66.6953 126.531C66.3151 126.531 66.0078 126.422 65.7734 126.203C65.5443 125.984 65.4297 125.703 65.4297 125.359ZM72.0781 136H69.8125V124H72.0781V136ZM80.0078 127.547L80.0781 128.523C80.6823 127.768 81.4922 127.391 82.5078 127.391C83.4036 127.391 84.0703 127.654 84.5078 128.18C84.9453 128.706 85.1693 129.492 85.1797 130.539V136H82.9219V130.594C82.9219 130.115 82.8177 129.768 82.6094 129.555C82.401 129.336 82.0547 129.227 81.5703 129.227C80.9349 129.227 80.4583 129.497 80.1406 130.039V136H77.8828V127.547H80.0078ZM91.7969 136C91.6927 135.797 91.6172 135.544 91.5703 135.242C91.0234 135.852 90.3125 136.156 89.4375 136.156C88.6094 136.156 87.9219 135.917 87.375 135.438C86.8333 134.958 86.5625 134.354 86.5625 133.625C86.5625 132.729 86.8932 132.042 87.5547 131.562C88.2214 131.083 89.1823 130.841 90.4375 130.836H91.4766V130.352C91.4766 129.961 91.375 129.648 91.1719 129.414C90.974 129.18 90.6589 129.062 90.2266 129.062C89.8464 129.062 89.5469 129.154 89.3281 129.336C89.1146 129.518 89.0078 129.768 89.0078 130.086H86.75C86.75 129.596 86.901 129.143 87.2031 128.727C87.5052 128.31 87.9323 127.984 88.4844 127.75C89.0365 127.51 89.6562 127.391 90.3438 127.391C91.3854 127.391 92.2109 127.654 92.8203 128.18C93.4349 128.701 93.7422 129.435 93.7422 130.383V134.047C93.7474 134.849 93.8594 135.456 94.0781 135.867V136H91.7969ZM89.9297 134.43C90.263 134.43 90.5703 134.357 90.8516 134.211C91.1328 134.06 91.3411 133.859 91.4766 133.609V132.156H90.6328C89.5026 132.156 88.901 132.547 88.8281 133.328L88.8203 133.461C88.8203 133.742 88.9193 133.974 89.1172 134.156C89.3151 134.339 89.5859 134.43 89.9297 134.43ZM97.5938 127.547L97.6641 128.492C98.263 127.758 99.0729 127.391 100.094 127.391C101.182 127.391 101.93 127.82 102.336 128.68C102.93 127.82 103.776 127.391 104.875 127.391C105.792 127.391 106.474 127.659 106.922 128.195C107.37 128.727 107.594 129.529 107.594 130.602V136H105.328V130.609C105.328 130.13 105.234 129.781 105.047 129.562C104.859 129.339 104.529 129.227 104.055 129.227C103.378 129.227 102.909 129.549 102.648 130.195L102.656 136H100.398V130.617C100.398 130.128 100.302 129.773 100.109 129.555C99.9167 129.336 99.5885 129.227 99.125 129.227C98.4844 129.227 98.0208 129.492 97.7344 130.023V136H95.4766V127.547H97.5938ZM113.227 136.156C111.987 136.156 110.977 135.776 110.195 135.016C109.419 134.255 109.031 133.242 109.031 131.977V131.758C109.031 130.909 109.195 130.151 109.523 129.484C109.852 128.812 110.315 128.297 110.914 127.938C111.518 127.573 112.206 127.391 112.977 127.391C114.133 127.391 115.042 127.755 115.703 128.484C116.37 129.214 116.703 130.247 116.703 131.586V132.508H111.32C111.393 133.06 111.612 133.503 111.977 133.836C112.346 134.169 112.812 134.336 113.375 134.336C114.245 134.336 114.924 134.021 115.414 133.391L116.523 134.633C116.185 135.112 115.727 135.487 115.148 135.758C114.57 136.023 113.93 136.156 113.227 136.156ZM112.969 129.219C112.521 129.219 112.156 129.37 111.875 129.672C111.599 129.974 111.422 130.406 111.344 130.969H114.484V130.789C114.474 130.289 114.339 129.904 114.078 129.633C113.818 129.357 113.448 129.219 112.969 129.219ZM118.102 134.891C118.102 134.531 118.221 134.24 118.461 134.016C118.706 133.792 119.01 133.68 119.375 133.68C119.745 133.68 120.049 133.792 120.289 134.016C120.534 134.24 120.656 134.531 120.656 134.891C120.656 135.245 120.536 135.534 120.297 135.758C120.057 135.977 119.75 136.086 119.375 136.086C119.005 136.086 118.701 135.977 118.461 135.758C118.221 135.534 118.102 135.245 118.102 134.891ZM118.102 128.492C118.102 128.133 118.221 127.841 118.461 127.617C118.706 127.393 119.01 127.281 119.375 127.281C119.745 127.281 120.049 127.393 120.289 127.617C120.534 127.841 120.656 128.133 120.656 128.492C120.656 128.846 120.536 129.135 120.297 129.359C120.057 129.578 119.75 129.688 119.375 129.688C119.005 129.688 118.701 129.578 118.461 129.359C118.221 129.135 118.102 128.846 118.102 128.492Z" fill="black"/>
<path d="M68.4746 164.927H73.1914V166H67.1553V156.047H68.4746V164.927ZM74.1553 162.233C74.1553 161.509 74.2965 160.857 74.5791 160.278C74.8662 159.7 75.2627 159.253 75.7686 158.938C76.279 158.624 76.86 158.467 77.5117 158.467C78.5189 158.467 79.3324 158.815 79.9521 159.513C80.5765 160.21 80.8887 161.137 80.8887 162.295V162.384C80.8887 163.104 80.7497 163.751 80.4717 164.325C80.1982 164.895 79.804 165.339 79.2891 165.658C78.7786 165.977 78.1908 166.137 77.5254 166.137C76.5228 166.137 75.7093 165.788 75.085 165.091C74.4652 164.394 74.1553 163.471 74.1553 162.322V162.233ZM75.4268 162.384C75.4268 163.204 75.6159 163.863 75.9941 164.359C76.377 164.856 76.8874 165.104 77.5254 165.104C78.168 165.104 78.6784 164.854 79.0566 164.353C79.4349 163.847 79.624 163.14 79.624 162.233C79.624 161.422 79.4303 160.766 79.043 160.265C78.6602 159.759 78.1497 159.506 77.5117 159.506C76.8874 159.506 76.3838 159.754 76.001 160.251C75.6182 160.748 75.4268 161.459 75.4268 162.384ZM86.0498 159.738C85.8584 159.706 85.651 159.69 85.4277 159.69C84.5983 159.69 84.0355 160.044 83.7393 160.75V166H82.4746V158.604H83.7051L83.7256 159.458C84.1403 158.797 84.7282 158.467 85.4893 158.467C85.7354 158.467 85.9222 158.499 86.0498 158.562V159.738ZM90.1514 166.137C89.1488 166.137 88.333 165.809 87.7041 165.152C87.0752 164.492 86.7607 163.61 86.7607 162.507V162.274C86.7607 161.541 86.8997 160.887 87.1777 160.312C87.4603 159.734 87.8522 159.283 88.3535 158.959C88.8594 158.631 89.4062 158.467 89.9941 158.467C90.9557 158.467 91.7031 158.784 92.2363 159.417C92.7695 160.05 93.0361 160.957 93.0361 162.138V162.664H88.0254C88.0436 163.393 88.2555 163.983 88.6611 164.435C89.0713 164.881 89.5908 165.104 90.2197 165.104C90.6663 165.104 91.0446 165.013 91.3545 164.831C91.6644 164.649 91.9355 164.407 92.168 164.106L92.9404 164.708C92.3206 165.66 91.391 166.137 90.1514 166.137ZM89.9941 159.506C89.4837 159.506 89.0553 159.693 88.709 160.066C88.3626 160.436 88.1484 160.955 88.0664 161.625H91.7715V161.529C91.735 160.887 91.5618 160.39 91.252 160.039C90.9421 159.684 90.5228 159.506 89.9941 159.506ZM95.6953 158.604L95.7295 159.424C96.2718 158.786 97.0033 158.467 97.9238 158.467C98.9583 158.467 99.6624 158.863 100.036 159.656C100.282 159.301 100.601 159.014 100.993 158.795C101.39 158.576 101.857 158.467 102.395 158.467C104.017 158.467 104.842 159.326 104.869 161.044V166H103.604V161.119C103.604 160.59 103.484 160.196 103.242 159.937C103.001 159.672 102.595 159.54 102.025 159.54C101.556 159.54 101.166 159.681 100.856 159.964C100.547 160.242 100.367 160.618 100.316 161.092V166H99.0449V161.153C99.0449 160.078 98.5186 159.54 97.4658 159.54C96.6364 159.54 96.069 159.893 95.7637 160.6V166H94.499V158.604H95.6953ZM111.63 166H110.365V158.604H111.63V166ZM110.263 156.642C110.263 156.437 110.324 156.263 110.447 156.122C110.575 155.981 110.762 155.91 111.008 155.91C111.254 155.91 111.441 155.981 111.568 156.122C111.696 156.263 111.76 156.437 111.76 156.642C111.76 156.847 111.696 157.018 111.568 157.154C111.441 157.291 111.254 157.359 111.008 157.359C110.762 157.359 110.575 157.291 110.447 157.154C110.324 157.018 110.263 156.847 110.263 156.642ZM119.908 162.384C119.908 163.509 119.651 164.416 119.136 165.104C118.621 165.793 117.924 166.137 117.044 166.137C116.146 166.137 115.44 165.852 114.925 165.282V168.844H113.66V158.604H114.815L114.877 159.424C115.392 158.786 116.107 158.467 117.023 158.467C117.912 158.467 118.614 158.802 119.129 159.472C119.648 160.142 119.908 161.074 119.908 162.268V162.384ZM118.644 162.24C118.644 161.406 118.466 160.748 118.11 160.265C117.755 159.782 117.267 159.54 116.647 159.54C115.882 159.54 115.308 159.88 114.925 160.559V164.093C115.303 164.767 115.882 165.104 116.661 165.104C117.267 165.104 117.748 164.865 118.104 164.387C118.464 163.904 118.644 163.188 118.644 162.24ZM125.828 164.038C125.828 163.696 125.698 163.432 125.438 163.245C125.183 163.054 124.734 162.89 124.092 162.753C123.454 162.616 122.946 162.452 122.567 162.261C122.194 162.069 121.916 161.841 121.733 161.577C121.556 161.313 121.467 160.998 121.467 160.634C121.467 160.028 121.722 159.515 122.232 159.096C122.747 158.676 123.404 158.467 124.201 158.467C125.04 158.467 125.719 158.683 126.238 159.116C126.762 159.549 127.024 160.103 127.024 160.777H125.753C125.753 160.431 125.605 160.132 125.309 159.882C125.017 159.631 124.648 159.506 124.201 159.506C123.741 159.506 123.381 159.606 123.121 159.807C122.861 160.007 122.731 160.269 122.731 160.593C122.731 160.898 122.852 161.128 123.094 161.283C123.335 161.438 123.771 161.586 124.399 161.728C125.033 161.869 125.546 162.037 125.938 162.233C126.329 162.429 126.619 162.666 126.806 162.944C126.997 163.218 127.093 163.553 127.093 163.949C127.093 164.61 126.828 165.141 126.3 165.542C125.771 165.938 125.085 166.137 124.242 166.137C123.65 166.137 123.126 166.032 122.67 165.822C122.214 165.613 121.856 165.321 121.597 164.947C121.341 164.569 121.214 164.161 121.214 163.724H122.479C122.501 164.147 122.67 164.485 122.984 164.735C123.303 164.981 123.723 165.104 124.242 165.104C124.721 165.104 125.104 165.009 125.391 164.817C125.682 164.621 125.828 164.362 125.828 164.038ZM133.307 165.269C132.814 165.847 132.092 166.137 131.14 166.137C130.351 166.137 129.75 165.909 129.335 165.453C128.925 164.993 128.717 164.314 128.713 163.416V158.604H129.978V163.382C129.978 164.503 130.433 165.063 131.345 165.063C132.311 165.063 132.953 164.703 133.272 163.983V158.604H134.537V166H133.334L133.307 165.269ZM137.654 158.604L137.688 159.424C138.231 158.786 138.962 158.467 139.883 158.467C140.917 158.467 141.621 158.863 141.995 159.656C142.241 159.301 142.56 159.014 142.952 158.795C143.349 158.576 143.816 158.467 144.354 158.467C145.976 158.467 146.801 159.326 146.828 161.044V166H145.563V161.119C145.563 160.59 145.443 160.196 145.201 159.937C144.96 159.672 144.554 159.54 143.984 159.54C143.515 159.54 143.125 159.681 142.815 159.964C142.506 160.242 142.326 160.618 142.275 161.092V166H141.004V161.153C141.004 160.078 140.478 159.54 139.425 159.54C138.595 159.54 138.028 159.893 137.723 160.6V166H136.458V158.604H137.654ZM151.907 162.24C151.907 161.105 152.176 160.194 152.714 159.506C153.252 158.813 153.956 158.467 154.826 158.467C155.692 158.467 156.378 158.763 156.884 159.355V155.5H158.148V166H156.986L156.925 165.207C156.419 165.827 155.715 166.137 154.812 166.137C153.956 166.137 153.256 165.786 152.714 165.084C152.176 164.382 151.907 163.466 151.907 162.336V162.24ZM153.172 162.384C153.172 163.222 153.345 163.879 153.691 164.353C154.038 164.826 154.516 165.063 155.127 165.063C155.929 165.063 156.515 164.703 156.884 163.983V160.586C156.506 159.889 155.924 159.54 155.141 159.54C154.521 159.54 154.038 159.779 153.691 160.258C153.345 160.736 153.172 161.445 153.172 162.384ZM159.782 162.233C159.782 161.509 159.924 160.857 160.206 160.278C160.493 159.7 160.89 159.253 161.396 158.938C161.906 158.624 162.487 158.467 163.139 158.467C164.146 158.467 164.959 158.815 165.579 159.513C166.203 160.21 166.516 161.137 166.516 162.295V162.384C166.516 163.104 166.377 163.751 166.099 164.325C165.825 164.895 165.431 165.339 164.916 165.658C164.406 165.977 163.818 166.137 163.152 166.137C162.15 166.137 161.336 165.788 160.712 165.091C160.092 164.394 159.782 163.471 159.782 162.322V162.233ZM161.054 162.384C161.054 163.204 161.243 163.863 161.621 164.359C162.004 164.856 162.514 165.104 163.152 165.104C163.795 165.104 164.305 164.854 164.684 164.353C165.062 163.847 165.251 163.14 165.251 162.233C165.251 161.422 165.057 160.766 164.67 160.265C164.287 159.759 163.777 159.506 163.139 159.506C162.514 159.506 162.011 159.754 161.628 160.251C161.245 160.748 161.054 161.459 161.054 162.384ZM169.476 166H168.211V155.5H169.476V166ZM171.171 162.233C171.171 161.509 171.312 160.857 171.595 160.278C171.882 159.7 172.278 159.253 172.784 158.938C173.295 158.624 173.876 158.467 174.527 158.467C175.535 158.467 176.348 158.815 176.968 159.513C177.592 160.21 177.904 161.137 177.904 162.295V162.384C177.904 163.104 177.765 163.751 177.487 164.325C177.214 164.895 176.82 165.339 176.305 165.658C175.794 165.977 175.206 166.137 174.541 166.137C173.538 166.137 172.725 165.788 172.101 165.091C171.481 164.394 171.171 163.471 171.171 162.322V162.233ZM172.442 162.384C172.442 163.204 172.632 163.863 173.01 164.359C173.393 164.856 173.903 165.104 174.541 165.104C175.184 165.104 175.694 164.854 176.072 164.353C176.451 163.847 176.64 163.14 176.64 162.233C176.64 161.422 176.446 160.766 176.059 160.265C175.676 159.759 175.165 159.506 174.527 159.506C173.903 159.506 173.399 159.754 173.017 160.251C172.634 160.748 172.442 161.459 172.442 162.384ZM183.065 159.738C182.874 159.706 182.667 159.69 182.443 159.69C181.614 159.69 181.051 160.044 180.755 160.75V166H179.49V158.604H180.721L180.741 159.458C181.156 158.797 181.744 158.467 182.505 158.467C182.751 158.467 182.938 158.499 183.065 158.562V159.738ZM192.014 164.038C192.014 163.696 191.884 163.432 191.624 163.245C191.369 163.054 190.92 162.89 190.277 162.753C189.639 162.616 189.131 162.452 188.753 162.261C188.379 162.069 188.101 161.841 187.919 161.577C187.741 161.313 187.652 160.998 187.652 160.634C187.652 160.028 187.908 159.515 188.418 159.096C188.933 158.676 189.589 158.467 190.387 158.467C191.225 158.467 191.904 158.683 192.424 159.116C192.948 159.549 193.21 160.103 193.21 160.777H191.938C191.938 160.431 191.79 160.132 191.494 159.882C191.202 159.631 190.833 159.506 190.387 159.506C189.926 159.506 189.566 159.606 189.307 159.807C189.047 160.007 188.917 160.269 188.917 160.593C188.917 160.898 189.038 161.128 189.279 161.283C189.521 161.438 189.956 161.586 190.585 161.728C191.218 161.869 191.731 162.037 192.123 162.233C192.515 162.429 192.804 162.666 192.991 162.944C193.183 163.218 193.278 163.553 193.278 163.949C193.278 164.61 193.014 165.141 192.485 165.542C191.957 165.938 191.271 166.137 190.428 166.137C189.835 166.137 189.311 166.032 188.855 165.822C188.4 165.613 188.042 165.321 187.782 164.947C187.527 164.569 187.399 164.161 187.399 163.724H188.664C188.687 164.147 188.855 164.485 189.17 164.735C189.489 164.981 189.908 165.104 190.428 165.104C190.906 165.104 191.289 165.009 191.576 164.817C191.868 164.621 192.014 164.362 192.014 164.038ZM196.3 166H195.035V158.604H196.3V166ZM194.933 156.642C194.933 156.437 194.994 156.263 195.117 156.122C195.245 155.981 195.432 155.91 195.678 155.91C195.924 155.91 196.111 155.981 196.238 156.122C196.366 156.263 196.43 156.437 196.43 156.642C196.43 156.847 196.366 157.018 196.238 157.154C196.111 157.291 195.924 157.359 195.678 157.359C195.432 157.359 195.245 157.291 195.117 157.154C194.994 157.018 194.933 156.847 194.933 156.642ZM200.046 156.812V158.604H201.427V159.581H200.046V164.168C200.046 164.464 200.107 164.688 200.23 164.838C200.354 164.984 200.563 165.057 200.859 165.057C201.005 165.057 201.206 165.029 201.461 164.975V166C201.128 166.091 200.805 166.137 200.49 166.137C199.925 166.137 199.499 165.966 199.212 165.624C198.925 165.282 198.781 164.797 198.781 164.168V159.581H197.435V158.604H198.781V156.812H200.046ZM210.949 166C210.876 165.854 210.817 165.594 210.771 165.221C210.184 165.831 209.482 166.137 208.666 166.137C207.937 166.137 207.338 165.932 206.868 165.521C206.403 165.107 206.171 164.583 206.171 163.949C206.171 163.179 206.463 162.582 207.046 162.158C207.634 161.73 208.459 161.516 209.521 161.516H210.751V160.935C210.751 160.493 210.619 160.142 210.354 159.882C210.09 159.618 209.701 159.485 209.186 159.485C208.734 159.485 208.356 159.599 208.051 159.827C207.745 160.055 207.593 160.331 207.593 160.654H206.321C206.321 160.285 206.451 159.93 206.711 159.588C206.975 159.242 207.331 158.968 207.777 158.768C208.229 158.567 208.723 158.467 209.261 158.467C210.113 158.467 210.781 158.681 211.264 159.109C211.747 159.533 211.997 160.119 212.016 160.866V164.271C212.016 164.95 212.102 165.49 212.275 165.891V166H210.949ZM208.851 165.036C209.247 165.036 209.623 164.934 209.979 164.729C210.334 164.523 210.591 164.257 210.751 163.929V162.411H209.76C208.21 162.411 207.436 162.865 207.436 163.771C207.436 164.168 207.568 164.478 207.832 164.701C208.096 164.924 208.436 165.036 208.851 165.036ZM215.188 158.604L215.222 159.424C215.764 158.786 216.495 158.467 217.416 158.467C218.451 158.467 219.155 158.863 219.528 159.656C219.774 159.301 220.093 159.014 220.485 158.795C220.882 158.576 221.349 158.467 221.887 158.467C223.509 158.467 224.334 159.326 224.361 161.044V166H223.097V161.119C223.097 160.59 222.976 160.196 222.734 159.937C222.493 159.672 222.087 159.54 221.518 159.54C221.048 159.54 220.659 159.681 220.349 159.964C220.039 160.242 219.859 160.618 219.809 161.092V166H218.537V161.153C218.537 160.078 218.011 159.54 216.958 159.54C216.129 159.54 215.561 159.893 215.256 160.6V166H213.991V158.604H215.188ZM229.345 166.137C228.342 166.137 227.526 165.809 226.897 165.152C226.269 164.492 225.954 163.61 225.954 162.507V162.274C225.954 161.541 226.093 160.887 226.371 160.312C226.654 159.734 227.046 159.283 227.547 158.959C228.053 158.631 228.6 158.467 229.188 158.467C230.149 158.467 230.896 158.784 231.43 159.417C231.963 160.05 232.229 160.957 232.229 162.138V162.664H227.219C227.237 163.393 227.449 163.983 227.854 164.435C228.265 164.881 228.784 165.104 229.413 165.104C229.86 165.104 230.238 165.013 230.548 164.831C230.858 164.649 231.129 164.407 231.361 164.106L232.134 164.708C231.514 165.66 230.584 166.137 229.345 166.137ZM229.188 159.506C228.677 159.506 228.249 159.693 227.902 160.066C227.556 160.436 227.342 160.955 227.26 161.625H230.965V161.529C230.928 160.887 230.755 160.39 230.445 160.039C230.135 159.684 229.716 159.506 229.188 159.506ZM235.415 156.812V158.604H236.796V159.581H235.415V164.168C235.415 164.464 235.477 164.688 235.6 164.838C235.723 164.984 235.932 165.057 236.229 165.057C236.374 165.057 236.575 165.029 236.83 164.975V166C236.497 166.091 236.174 166.137 235.859 166.137C235.294 166.137 234.868 165.966 234.581 165.624C234.294 165.282 234.15 164.797 234.15 164.168V159.581H232.804V158.604H234.15V156.812H235.415Z" fill="black"/>
<path d="M50.5781 262.523H47.0938V272H44.75V262.523H41.3125V260.625H50.5781V262.523ZM54.1562 272H51.8906V263.547H54.1562V272ZM51.7578 261.359C51.7578 261.021 51.8698 260.742 52.0938 260.523C52.3229 260.305 52.6328 260.195 53.0234 260.195C53.4089 260.195 53.7161 260.305 53.9453 260.523C54.1745 260.742 54.2891 261.021 54.2891 261.359C54.2891 261.703 54.1719 261.984 53.9375 262.203C53.7083 262.422 53.4036 262.531 53.0234 262.531C52.6432 262.531 52.3359 262.422 52.1016 262.203C51.8724 261.984 51.7578 261.703 51.7578 261.359ZM58.1406 263.547L58.2109 264.492C58.8099 263.758 59.6198 263.391 60.6406 263.391C61.7292 263.391 62.4766 263.82 62.8828 264.68C63.4766 263.82 64.3229 263.391 65.4219 263.391C66.3385 263.391 67.0208 263.659 67.4688 264.195C67.9167 264.727 68.1406 265.529 68.1406 266.602V272H65.875V266.609C65.875 266.13 65.7812 265.781 65.5938 265.562C65.4062 265.339 65.0755 265.227 64.6016 265.227C63.9245 265.227 63.4557 265.549 63.1953 266.195L63.2031 272H60.9453V266.617C60.9453 266.128 60.849 265.773 60.6562 265.555C60.4635 265.336 60.1354 265.227 59.6719 265.227C59.0312 265.227 58.5677 265.492 58.2812 266.023V272H56.0234V263.547H58.1406ZM73.7734 272.156C72.5339 272.156 71.5234 271.776 70.7422 271.016C69.9661 270.255 69.5781 269.242 69.5781 267.977V267.758C69.5781 266.909 69.7422 266.151 70.0703 265.484C70.3984 264.812 70.862 264.297 71.4609 263.938C72.0651 263.573 72.7526 263.391 73.5234 263.391C74.6797 263.391 75.5885 263.755 76.25 264.484C76.9167 265.214 77.25 266.247 77.25 267.586V268.508H71.8672C71.9401 269.06 72.1589 269.503 72.5234 269.836C72.8932 270.169 73.3594 270.336 73.9219 270.336C74.7917 270.336 75.4714 270.021 75.9609 269.391L77.0703 270.633C76.7318 271.112 76.2734 271.487 75.6953 271.758C75.1172 272.023 74.4766 272.156 73.7734 272.156ZM73.5156 265.219C73.0677 265.219 72.7031 265.37 72.4219 265.672C72.1458 265.974 71.9688 266.406 71.8906 266.969H75.0312V266.789C75.0208 266.289 74.8854 265.904 74.625 265.633C74.3646 265.357 73.9948 265.219 73.5156 265.219ZM87.4219 272C87.3177 271.797 87.2422 271.544 87.1953 271.242C86.6484 271.852 85.9375 272.156 85.0625 272.156C84.2344 272.156 83.5469 271.917 83 271.438C82.4583 270.958 82.1875 270.354 82.1875 269.625C82.1875 268.729 82.5182 268.042 83.1797 267.562C83.8464 267.083 84.8073 266.841 86.0625 266.836H87.1016V266.352C87.1016 265.961 87 265.648 86.7969 265.414C86.599 265.18 86.2839 265.062 85.8516 265.062C85.4714 265.062 85.1719 265.154 84.9531 265.336C84.7396 265.518 84.6328 265.768 84.6328 266.086H82.375C82.375 265.596 82.526 265.143 82.8281 264.727C83.1302 264.31 83.5573 263.984 84.1094 263.75C84.6615 263.51 85.2812 263.391 85.9688 263.391C87.0104 263.391 87.8359 263.654 88.4453 264.18C89.0599 264.701 89.3672 265.435 89.3672 266.383V270.047C89.3724 270.849 89.4844 271.456 89.7031 271.867V272H87.4219ZM85.5547 270.43C85.888 270.43 86.1953 270.357 86.4766 270.211C86.7578 270.06 86.9661 269.859 87.1016 269.609V268.156H86.2578C85.1276 268.156 84.526 268.547 84.4531 269.328L84.4453 269.461C84.4453 269.742 84.5443 269.974 84.7422 270.156C84.9401 270.339 85.2109 270.43 85.5547 270.43ZM93.1797 263.547L93.25 264.523C93.8542 263.768 94.6641 263.391 95.6797 263.391C96.5755 263.391 97.2422 263.654 97.6797 264.18C98.1172 264.706 98.3411 265.492 98.3516 266.539V272H96.0938V266.594C96.0938 266.115 95.9896 265.768 95.7812 265.555C95.5729 265.336 95.2266 265.227 94.7422 265.227C94.1068 265.227 93.6302 265.497 93.3125 266.039V272H91.0547V263.547H93.1797ZM99.7188 267.711C99.7188 266.393 100.013 265.344 100.602 264.562C101.195 263.781 102.005 263.391 103.031 263.391C103.854 263.391 104.534 263.698 105.07 264.312V260H107.336V272H105.297L105.188 271.102C104.625 271.805 103.901 272.156 103.016 272.156C102.021 272.156 101.221 271.766 100.617 270.984C100.018 270.198 99.7188 269.107 99.7188 267.711ZM101.977 267.875C101.977 268.667 102.115 269.273 102.391 269.695C102.667 270.117 103.068 270.328 103.594 270.328C104.292 270.328 104.784 270.034 105.07 269.445V266.109C104.789 265.521 104.302 265.227 103.609 265.227C102.521 265.227 101.977 266.109 101.977 267.875ZM112.719 267.711C112.719 266.393 113.013 265.344 113.602 264.562C114.195 263.781 115.005 263.391 116.031 263.391C116.854 263.391 117.534 263.698 118.07 264.312V260H120.336V272H118.297L118.188 271.102C117.625 271.805 116.901 272.156 116.016 272.156C115.021 272.156 114.221 271.766 113.617 270.984C113.018 270.198 112.719 269.107 112.719 267.711ZM114.977 267.875C114.977 268.667 115.115 269.273 115.391 269.695C115.667 270.117 116.068 270.328 116.594 270.328C117.292 270.328 117.784 270.034 118.07 269.445V266.109C117.789 265.521 117.302 265.227 116.609 265.227C115.521 265.227 114.977 266.109 114.977 267.875ZM126.984 272C126.88 271.797 126.805 271.544 126.758 271.242C126.211 271.852 125.5 272.156 124.625 272.156C123.797 272.156 123.109 271.917 122.562 271.438C122.021 270.958 121.75 270.354 121.75 269.625C121.75 268.729 122.081 268.042 122.742 267.562C123.409 267.083 124.37 266.841 125.625 266.836H126.664V266.352C126.664 265.961 126.562 265.648 126.359 265.414C126.161 265.18 125.846 265.062 125.414 265.062C125.034 265.062 124.734 265.154 124.516 265.336C124.302 265.518 124.195 265.768 124.195 266.086H121.938C121.938 265.596 122.089 265.143 122.391 264.727C122.693 264.31 123.12 263.984 123.672 263.75C124.224 263.51 124.844 263.391 125.531 263.391C126.573 263.391 127.398 263.654 128.008 264.18C128.622 264.701 128.93 265.435 128.93 266.383V270.047C128.935 270.849 129.047 271.456 129.266 271.867V272H126.984ZM125.117 270.43C125.451 270.43 125.758 270.357 126.039 270.211C126.32 270.06 126.529 269.859 126.664 269.609V268.156H125.82C124.69 268.156 124.089 268.547 124.016 269.328L124.008 269.461C124.008 269.742 124.107 269.974 124.305 270.156C124.503 270.339 124.773 270.43 125.117 270.43ZM133.367 261.469V263.547H134.812V265.203H133.367V269.422C133.367 269.734 133.427 269.958 133.547 270.094C133.667 270.229 133.896 270.297 134.234 270.297C134.484 270.297 134.706 270.279 134.898 270.242V271.953C134.456 272.089 134 272.156 133.531 272.156C131.948 272.156 131.141 271.357 131.109 269.758V265.203H129.875V263.547H131.109V261.469H133.367ZM139.961 272.156C138.721 272.156 137.711 271.776 136.93 271.016C136.154 270.255 135.766 269.242 135.766 267.977V267.758C135.766 266.909 135.93 266.151 136.258 265.484C136.586 264.812 137.049 264.297 137.648 263.938C138.253 263.573 138.94 263.391 139.711 263.391C140.867 263.391 141.776 263.755 142.438 264.484C143.104 265.214 143.438 266.247 143.438 267.586V268.508H138.055C138.128 269.06 138.346 269.503 138.711 269.836C139.081 270.169 139.547 270.336 140.109 270.336C140.979 270.336 141.659 270.021 142.148 269.391L143.258 270.633C142.919 271.112 142.461 271.487 141.883 271.758C141.305 272.023 140.664 272.156 139.961 272.156ZM139.703 265.219C139.255 265.219 138.891 265.37 138.609 265.672C138.333 265.974 138.156 266.406 138.078 266.969H141.219V266.789C141.208 266.289 141.073 265.904 140.812 265.633C140.552 265.357 140.182 265.219 139.703 265.219ZM144.836 270.891C144.836 270.531 144.956 270.24 145.195 270.016C145.44 269.792 145.745 269.68 146.109 269.68C146.479 269.68 146.784 269.792 147.023 270.016C147.268 270.24 147.391 270.531 147.391 270.891C147.391 271.245 147.271 271.534 147.031 271.758C146.792 271.977 146.484 272.086 146.109 272.086C145.74 272.086 145.435 271.977 145.195 271.758C144.956 271.534 144.836 271.245 144.836 270.891ZM144.836 264.492C144.836 264.133 144.956 263.841 145.195 263.617C145.44 263.393 145.745 263.281 146.109 263.281C146.479 263.281 146.784 263.393 147.023 263.617C147.268 263.841 147.391 264.133 147.391 264.492C147.391 264.846 147.271 265.135 147.031 265.359C146.792 265.578 146.484 265.688 146.109 265.688C145.74 265.688 145.435 265.578 145.195 265.359C144.956 265.135 144.836 264.846 144.836 264.492Z" fill="black"/>
<path d="M69.4385 297.304L71.0791 294.604H72.5557L70.1357 298.261L72.6309 302H71.168L69.459 299.231L67.75 302H66.2803L68.7754 298.261L66.3555 294.604H67.8184L69.4385 297.304ZM76.3838 297.304L78.0244 294.604H79.501L77.0811 298.261L79.5762 302H78.1133L76.4043 299.231L74.6953 302H73.2256L75.7207 298.261L73.3008 294.604H74.7637L76.3838 297.304ZM81.1006 302.854H80.0137L84.1699 292.047H85.25L81.1006 302.854ZM89.0986 297.304L90.7393 294.604H92.2158L89.7959 298.261L92.291 302H90.8281L89.1191 299.231L87.4102 302H85.9404L88.4355 298.261L86.0156 294.604H87.4785L89.0986 297.304ZM96.0439 297.304L97.6846 294.604H99.1611L96.7412 298.261L99.2363 302H97.7734L96.0645 299.231L94.3555 302H92.8857L95.3809 298.261L92.9609 294.604H94.4238L96.0439 297.304ZM100.761 302.854H99.6738L103.83 292.047H104.91L100.761 302.854ZM108.759 297.304L110.399 294.604H111.876L109.456 298.261L111.951 302H110.488L108.779 299.231L107.07 302H105.601L108.096 298.261L105.676 294.604H107.139L108.759 297.304ZM115.704 297.304L117.345 294.604H118.821L116.401 298.261L118.896 302H117.434L115.725 299.231L114.016 302H112.546L115.041 298.261L112.621 294.604H114.084L115.704 297.304ZM126.122 297.304L127.763 294.604H129.239L126.819 298.261L129.314 302H127.852L126.143 299.231L124.434 302H122.964L125.459 298.261L123.039 294.604H124.502L126.122 297.304ZM133.067 297.304L134.708 294.604H136.185L133.765 298.261L136.26 302H134.797L133.088 299.231L131.379 302H129.909L132.404 298.261L129.984 294.604H131.447L133.067 297.304ZM137.49 301.337C137.49 301.118 137.554 300.936 137.682 300.79C137.814 300.644 138.01 300.571 138.27 300.571C138.529 300.571 138.725 300.644 138.857 300.79C138.994 300.936 139.062 301.118 139.062 301.337C139.062 301.547 138.994 301.722 138.857 301.863C138.725 302.005 138.529 302.075 138.27 302.075C138.01 302.075 137.814 302.005 137.682 301.863C137.554 301.722 137.49 301.547 137.49 301.337ZM137.497 295.301C137.497 295.082 137.561 294.9 137.688 294.754C137.821 294.608 138.017 294.535 138.276 294.535C138.536 294.535 138.732 294.608 138.864 294.754C139.001 294.9 139.069 295.082 139.069 295.301C139.069 295.51 139.001 295.686 138.864 295.827C138.732 295.968 138.536 296.039 138.276 296.039C138.017 296.039 137.821 295.968 137.688 295.827C137.561 295.686 137.497 295.51 137.497 295.301ZM143.403 297.304L145.044 294.604H146.521L144.101 298.261L146.596 302H145.133L143.424 299.231L141.715 302H140.245L142.74 298.261L140.32 294.604H141.783L143.403 297.304ZM150.349 297.304L151.989 294.604H153.466L151.046 298.261L153.541 302H152.078L150.369 299.231L148.66 302H147.19L149.686 298.261L147.266 294.604H148.729L150.349 297.304Z" fill="black"/>
<g filter="url(#filter0_d)">
<rect x="61" y="343" width="273" height="52" rx="20" fill="#F2F2F2"/>
<rect x="61.5" y="343.5" width="272" height="51" rx="19.5" stroke="black"/>
</g>
<path d="M167.008 369.547H161.688V374.188H167.805V375H160.727V363.625H167.766V364.445H161.688V368.734H167.008V369.547ZM170.508 366.547L170.539 367.992C170.857 367.471 171.253 367.076 171.727 366.805C172.201 366.529 172.724 366.391 173.297 366.391C174.203 366.391 174.878 366.646 175.32 367.156C175.763 367.667 175.987 368.432 175.992 369.453V375H175.062V369.445C175.057 368.69 174.896 368.128 174.578 367.758C174.266 367.388 173.763 367.203 173.07 367.203C172.492 367.203 171.979 367.385 171.531 367.75C171.089 368.109 170.76 368.596 170.547 369.211V375H169.617V366.547H170.508ZM179.867 364.383V366.547H181.617V367.312H179.867V372.945C179.867 373.414 179.951 373.763 180.117 373.992C180.289 374.221 180.573 374.336 180.969 374.336C181.125 374.336 181.378 374.31 181.727 374.258L181.766 375.023C181.521 375.112 181.188 375.156 180.766 375.156C180.125 375.156 179.659 374.971 179.367 374.602C179.076 374.227 178.93 373.677 178.93 372.953V367.312H177.375V366.547H178.93V364.383H179.867ZM186.828 375.156C186.109 375.156 185.458 374.979 184.875 374.625C184.297 374.271 183.846 373.779 183.523 373.148C183.201 372.513 183.039 371.802 183.039 371.016V370.68C183.039 369.867 183.195 369.135 183.508 368.484C183.826 367.833 184.266 367.323 184.828 366.953C185.391 366.578 186 366.391 186.656 366.391C187.682 366.391 188.495 366.742 189.094 367.445C189.698 368.143 190 369.099 190 370.312V370.836H183.969V371.016C183.969 371.974 184.242 372.773 184.789 373.414C185.341 374.049 186.034 374.367 186.867 374.367C187.367 374.367 187.807 374.276 188.188 374.094C188.573 373.911 188.922 373.62 189.234 373.219L189.82 373.664C189.133 374.659 188.135 375.156 186.828 375.156ZM186.656 367.188C185.953 367.188 185.359 367.445 184.875 367.961C184.396 368.477 184.104 369.169 184 370.039H189.07V369.938C189.044 369.125 188.812 368.464 188.375 367.953C187.938 367.443 187.365 367.188 186.656 367.188ZM195.727 367.344C195.529 367.307 195.318 367.289 195.094 367.289C194.51 367.289 194.016 367.453 193.609 367.781C193.208 368.104 192.922 368.576 192.75 369.195V375H191.82V366.547H192.734L192.75 367.891C193.245 366.891 194.039 366.391 195.133 366.391C195.393 366.391 195.599 366.424 195.75 366.492L195.727 367.344ZM201.992 366.547L202.023 367.992C202.341 367.471 202.737 367.076 203.211 366.805C203.685 366.529 204.208 366.391 204.781 366.391C205.688 366.391 206.362 366.646 206.805 367.156C207.247 367.667 207.471 368.432 207.477 369.453V375H206.547V369.445C206.542 368.69 206.38 368.128 206.062 367.758C205.75 367.388 205.247 367.203 204.555 367.203C203.977 367.203 203.464 367.385 203.016 367.75C202.573 368.109 202.245 368.596 202.031 369.211V375H201.102V366.547H201.992ZM215.234 375C215.141 374.734 215.081 374.341 215.055 373.82C214.727 374.247 214.307 374.578 213.797 374.812C213.292 375.042 212.755 375.156 212.188 375.156C211.375 375.156 210.716 374.93 210.211 374.477C209.711 374.023 209.461 373.451 209.461 372.758C209.461 371.935 209.802 371.284 210.484 370.805C211.172 370.326 212.128 370.086 213.352 370.086H215.047V369.125C215.047 368.521 214.859 368.047 214.484 367.703C214.115 367.354 213.573 367.18 212.859 367.18C212.208 367.18 211.669 367.346 211.242 367.68C210.815 368.013 210.602 368.414 210.602 368.883L209.664 368.875C209.664 368.203 209.977 367.622 210.602 367.133C211.227 366.638 211.995 366.391 212.906 366.391C213.849 366.391 214.591 366.628 215.133 367.102C215.68 367.57 215.961 368.227 215.977 369.07V373.07C215.977 373.888 216.062 374.5 216.234 374.906V375H215.234ZM212.297 374.328C212.922 374.328 213.479 374.177 213.969 373.875C214.464 373.573 214.823 373.169 215.047 372.664V370.805H213.375C212.443 370.815 211.714 370.987 211.188 371.32C210.661 371.648 210.398 372.102 210.398 372.68C210.398 373.154 210.573 373.547 210.922 373.859C211.276 374.172 211.734 374.328 212.297 374.328ZM219.328 366.547L219.359 367.922C219.672 367.411 220.062 367.029 220.531 366.773C221 366.518 221.521 366.391 222.094 366.391C223.427 366.391 224.273 366.938 224.633 368.031C224.935 367.505 225.339 367.102 225.844 366.82C226.349 366.534 226.906 366.391 227.516 366.391C229.328 366.391 230.253 367.38 230.289 369.359V375H229.352V369.43C229.346 368.674 229.182 368.115 228.859 367.75C228.542 367.385 228.021 367.203 227.297 367.203C226.625 367.214 226.057 367.432 225.594 367.859C225.13 368.281 224.872 368.797 224.82 369.406V375H223.883V369.359C223.878 368.635 223.706 368.096 223.367 367.742C223.034 367.383 222.518 367.203 221.82 367.203C221.232 367.203 220.727 367.372 220.305 367.711C219.883 368.044 219.57 368.542 219.367 369.203V375H218.43V366.547H219.328ZM235.938 375.156C235.219 375.156 234.568 374.979 233.984 374.625C233.406 374.271 232.956 373.779 232.633 373.148C232.31 372.513 232.148 371.802 232.148 371.016V370.68C232.148 369.867 232.305 369.135 232.617 368.484C232.935 367.833 233.375 367.323 233.938 366.953C234.5 366.578 235.109 366.391 235.766 366.391C236.792 366.391 237.604 366.742 238.203 367.445C238.807 368.143 239.109 369.099 239.109 370.312V370.836H233.078V371.016C233.078 371.974 233.352 372.773 233.898 373.414C234.451 374.049 235.143 374.367 235.977 374.367C236.477 374.367 236.917 374.276 237.297 374.094C237.682 373.911 238.031 373.62 238.344 373.219L238.93 373.664C238.242 374.659 237.245 375.156 235.938 375.156ZM235.766 367.188C235.062 367.188 234.469 367.445 233.984 367.961C233.505 368.477 233.214 369.169 233.109 370.039H238.18V369.938C238.154 369.125 237.922 368.464 237.484 367.953C237.047 367.443 236.474 367.188 235.766 367.188Z" fill="black"/>
<g filter="url(#filter1_d)">
<rect x="61" y="413" width="273" height="52" rx="20" fill="#F2F2F2"/>
<rect x="61.5" y="413.5" width="272" height="51" rx="19.5" stroke="black"/>
</g>
<path d="M150.461 440.367V445H149.5V433.625H153.375C154.557 433.625 155.49 433.927 156.172 434.531C156.859 435.135 157.203 435.966 157.203 437.023C157.203 438.091 156.872 438.917 156.211 439.5C155.555 440.078 154.602 440.367 153.352 440.367H150.461ZM150.461 439.555H153.375C154.307 439.555 155.018 439.333 155.508 438.891C155.997 438.448 156.242 437.831 156.242 437.039C156.242 436.253 155.997 435.628 155.508 435.164C155.023 434.695 154.333 434.456 153.438 434.445H150.461V439.555ZM160.07 437.977C160.378 437.471 160.771 437.081 161.25 436.805C161.729 436.529 162.253 436.391 162.82 436.391C163.727 436.391 164.401 436.646 164.844 437.156C165.286 437.667 165.51 438.432 165.516 439.453V445H164.586V439.445C164.581 438.69 164.419 438.128 164.102 437.758C163.789 437.388 163.286 437.203 162.594 437.203C162.016 437.203 161.503 437.385 161.055 437.75C160.612 438.109 160.284 438.596 160.07 439.211V445H159.141V433H160.07V437.977ZM167.406 440.648C167.406 439.836 167.562 439.104 167.875 438.453C168.193 437.802 168.638 437.297 169.211 436.938C169.789 436.573 170.443 436.391 171.172 436.391C172.297 436.391 173.208 436.786 173.906 437.578C174.604 438.365 174.953 439.409 174.953 440.711V440.906C174.953 441.724 174.794 442.461 174.477 443.117C174.164 443.768 173.721 444.271 173.148 444.625C172.576 444.979 171.922 445.156 171.188 445.156C170.068 445.156 169.156 444.763 168.453 443.977C167.755 443.185 167.406 442.138 167.406 440.836V440.648ZM168.344 440.906C168.344 441.917 168.604 442.747 169.125 443.398C169.651 444.044 170.339 444.367 171.188 444.367C172.031 444.367 172.714 444.044 173.234 443.398C173.76 442.747 174.023 441.891 174.023 440.828V440.648C174.023 440.003 173.904 439.411 173.664 438.875C173.424 438.339 173.089 437.924 172.656 437.633C172.224 437.336 171.729 437.188 171.172 437.188C170.339 437.188 169.659 437.516 169.133 438.172C168.607 438.823 168.344 439.677 168.344 440.734V440.906ZM177.781 436.547L177.812 437.992C178.13 437.471 178.526 437.076 179 436.805C179.474 436.529 179.997 436.391 180.57 436.391C181.477 436.391 182.151 436.646 182.594 437.156C183.036 437.667 183.26 438.432 183.266 439.453V445H182.336V439.445C182.331 438.69 182.169 438.128 181.852 437.758C181.539 437.388 181.036 437.203 180.344 437.203C179.766 437.203 179.253 437.385 178.805 437.75C178.362 438.109 178.034 438.596 177.82 439.211V445H176.891V436.547H177.781ZM188.961 445.156C188.242 445.156 187.591 444.979 187.008 444.625C186.43 444.271 185.979 443.779 185.656 443.148C185.333 442.513 185.172 441.802 185.172 441.016V440.68C185.172 439.867 185.328 439.135 185.641 438.484C185.958 437.833 186.398 437.323 186.961 436.953C187.523 436.578 188.133 436.391 188.789 436.391C189.815 436.391 190.628 436.742 191.227 437.445C191.831 438.143 192.133 439.099 192.133 440.312V440.836H186.102V441.016C186.102 441.974 186.375 442.773 186.922 443.414C187.474 444.049 188.167 444.367 189 444.367C189.5 444.367 189.94 444.276 190.32 444.094C190.706 443.911 191.055 443.62 191.367 443.219L191.953 443.664C191.266 444.659 190.268 445.156 188.961 445.156ZM188.789 437.188C188.086 437.188 187.492 437.445 187.008 437.961C186.529 438.477 186.237 439.169 186.133 440.039H191.203V439.938C191.177 439.125 190.945 438.464 190.508 437.953C190.07 437.443 189.497 437.188 188.789 437.188ZM198.734 436.547L198.766 437.992C199.083 437.471 199.479 437.076 199.953 436.805C200.427 436.529 200.951 436.391 201.523 436.391C202.43 436.391 203.104 436.646 203.547 437.156C203.99 437.667 204.214 438.432 204.219 439.453V445H203.289V439.445C203.284 438.69 203.122 438.128 202.805 437.758C202.492 437.388 201.99 437.203 201.297 437.203C200.719 437.203 200.206 437.385 199.758 437.75C199.315 438.109 198.987 438.596 198.773 439.211V445H197.844V436.547H198.734ZM212.078 443.93C211.516 444.747 210.617 445.156 209.383 445.156C208.482 445.156 207.797 444.896 207.328 444.375C206.859 443.849 206.62 443.073 206.609 442.047V436.547H207.539V441.93C207.539 443.539 208.19 444.344 209.492 444.344C210.846 444.344 211.703 443.784 212.062 442.664V436.547H213V445H212.094L212.078 443.93ZM216.289 436.547L216.32 437.922C216.633 437.411 217.023 437.029 217.492 436.773C217.961 436.518 218.482 436.391 219.055 436.391C220.388 436.391 221.234 436.938 221.594 438.031C221.896 437.505 222.299 437.102 222.805 436.82C223.31 436.534 223.867 436.391 224.477 436.391C226.289 436.391 227.214 437.38 227.25 439.359V445H226.312V439.43C226.307 438.674 226.143 438.115 225.82 437.75C225.503 437.385 224.982 437.203 224.258 437.203C223.586 437.214 223.018 437.432 222.555 437.859C222.091 438.281 221.833 438.797 221.781 439.406V445H220.844V439.359C220.839 438.635 220.667 438.096 220.328 437.742C219.995 437.383 219.479 437.203 218.781 437.203C218.193 437.203 217.688 437.372 217.266 437.711C216.844 438.044 216.531 438.542 216.328 439.203V445H215.391V436.547H216.289ZM236.43 440.859C236.43 442.177 236.138 443.224 235.555 444C234.971 444.771 234.188 445.156 233.203 445.156C232.026 445.156 231.135 444.719 230.531 443.844L230.492 445H229.617V433H230.547V437.773C231.141 436.852 232.021 436.391 233.188 436.391C234.188 436.391 234.977 436.773 235.555 437.539C236.138 438.299 236.43 439.359 236.43 440.719V440.859ZM235.492 440.695C235.492 439.581 235.276 438.721 234.844 438.117C234.411 437.508 233.802 437.203 233.016 437.203C232.417 437.203 231.909 437.352 231.492 437.648C231.076 437.94 230.76 438.37 230.547 438.938V442.75C231.016 443.812 231.844 444.344 233.031 444.344C233.802 444.344 234.404 444.039 234.836 443.43C235.273 442.82 235.492 441.909 235.492 440.695ZM241.773 445.156C241.055 445.156 240.404 444.979 239.82 444.625C239.242 444.271 238.792 443.779 238.469 443.148C238.146 442.513 237.984 441.802 237.984 441.016V440.68C237.984 439.867 238.141 439.135 238.453 438.484C238.771 437.833 239.211 437.323 239.773 436.953C240.336 436.578 240.945 436.391 241.602 436.391C242.628 436.391 243.44 436.742 244.039 437.445C244.643 438.143 244.945 439.099 244.945 440.312V440.836H238.914V441.016C238.914 441.974 239.188 442.773 239.734 443.414C240.286 444.049 240.979 444.367 241.812 444.367C242.312 444.367 242.753 444.276 243.133 444.094C243.518 443.911 243.867 443.62 244.18 443.219L244.766 443.664C244.078 444.659 243.081 445.156 241.773 445.156ZM241.602 437.188C240.898 437.188 240.305 437.445 239.82 437.961C239.341 438.477 239.049 439.169 238.945 440.039H244.016V439.938C243.99 439.125 243.758 438.464 243.32 437.953C242.883 437.443 242.31 437.188 241.602 437.188ZM250.672 437.344C250.474 437.307 250.263 437.289 250.039 437.289C249.456 437.289 248.961 437.453 248.555 437.781C248.154 438.104 247.867 438.576 247.695 439.195V445H246.766V436.547H247.68L247.695 437.891C248.19 436.891 248.984 436.391 250.078 436.391C250.339 436.391 250.544 436.424 250.695 436.492L250.672 437.344Z" fill="black"/>
<rect x="85" y="-2" width="224" height="39" rx="19.5" fill="#2C2C2C"/>
<g filter="url(#filter2_d)">
<rect x="131" y="600" width="132" height="52" rx="20" fill="#E9E9E9"/>
</g>
<g filter="url(#filter3_d)">
<rect x="131" y="512" width="132" height="52" rx="20" fill="#E9E9E9"/>
</g>
<path d="M159.586 629.016C159.586 628.573 159.43 628.234 159.117 628C158.805 627.76 158.242 627.51 157.43 627.25C156.617 626.984 155.974 626.724 155.5 626.469C154.208 625.771 153.562 624.831 153.562 623.648C153.562 623.034 153.734 622.487 154.078 622.008C154.427 621.523 154.924 621.146 155.57 620.875C156.221 620.604 156.951 620.469 157.758 620.469C158.57 620.469 159.294 620.617 159.93 620.914C160.565 621.206 161.057 621.62 161.406 622.156C161.76 622.693 161.938 623.302 161.938 623.984H159.594C159.594 623.464 159.43 623.06 159.102 622.773C158.773 622.482 158.312 622.336 157.719 622.336C157.146 622.336 156.701 622.458 156.383 622.703C156.065 622.943 155.906 623.26 155.906 623.656C155.906 624.026 156.091 624.336 156.461 624.586C156.836 624.836 157.385 625.07 158.109 625.289C159.443 625.69 160.414 626.188 161.023 626.781C161.633 627.375 161.938 628.115 161.938 629C161.938 629.984 161.565 630.758 160.82 631.32C160.076 631.878 159.073 632.156 157.812 632.156C156.938 632.156 156.141 631.997 155.422 631.68C154.703 631.357 154.154 630.917 153.773 630.359C153.398 629.802 153.211 629.156 153.211 628.422H155.562C155.562 629.677 156.312 630.305 157.812 630.305C158.37 630.305 158.805 630.193 159.117 629.969C159.43 629.74 159.586 629.422 159.586 629.016ZM168.445 631.141C167.888 631.818 167.117 632.156 166.133 632.156C165.227 632.156 164.534 631.896 164.055 631.375C163.581 630.854 163.339 630.091 163.328 629.086V623.547H165.586V629.008C165.586 629.888 165.987 630.328 166.789 630.328C167.555 630.328 168.081 630.062 168.367 629.531V623.547H170.633V632H168.508L168.445 631.141ZM179.953 627.852C179.953 629.206 179.664 630.263 179.086 631.023C178.508 631.779 177.701 632.156 176.664 632.156C175.747 632.156 175.016 631.805 174.469 631.102L174.367 632H172.336V620H174.594V624.305C175.115 623.695 175.799 623.391 176.648 623.391C177.68 623.391 178.487 623.771 179.07 624.531C179.659 625.286 179.953 626.352 179.953 627.727V627.852ZM177.695 627.688C177.695 626.833 177.56 626.211 177.289 625.82C177.018 625.424 176.615 625.227 176.078 625.227C175.359 625.227 174.865 625.521 174.594 626.109V629.445C174.87 630.039 175.37 630.336 176.094 630.336C176.823 630.336 177.302 629.977 177.531 629.258C177.641 628.914 177.695 628.391 177.695 627.688ZM183.469 623.547L183.539 624.492C184.138 623.758 184.948 623.391 185.969 623.391C187.057 623.391 187.805 623.82 188.211 624.68C188.805 623.82 189.651 623.391 190.75 623.391C191.667 623.391 192.349 623.659 192.797 624.195C193.245 624.727 193.469 625.529 193.469 626.602V632H191.203V626.609C191.203 626.13 191.109 625.781 190.922 625.562C190.734 625.339 190.404 625.227 189.93 625.227C189.253 625.227 188.784 625.549 188.523 626.195L188.531 632H186.273V626.617C186.273 626.128 186.177 625.773 185.984 625.555C185.792 625.336 185.464 625.227 185 625.227C184.359 625.227 183.896 625.492 183.609 626.023V632H181.352V623.547H183.469ZM197.594 632H195.328V623.547H197.594V632ZM195.195 621.359C195.195 621.021 195.307 620.742 195.531 620.523C195.76 620.305 196.07 620.195 196.461 620.195C196.846 620.195 197.154 620.305 197.383 620.523C197.612 620.742 197.727 621.021 197.727 621.359C197.727 621.703 197.609 621.984 197.375 622.203C197.146 622.422 196.841 622.531 196.461 622.531C196.081 622.531 195.773 622.422 195.539 622.203C195.31 621.984 195.195 621.703 195.195 621.359ZM202.164 621.469V623.547H203.609V625.203H202.164V629.422C202.164 629.734 202.224 629.958 202.344 630.094C202.464 630.229 202.693 630.297 203.031 630.297C203.281 630.297 203.503 630.279 203.695 630.242V631.953C203.253 632.089 202.797 632.156 202.328 632.156C200.745 632.156 199.938 631.357 199.906 629.758V625.203H198.672V623.547H199.906V621.469H202.164ZM215.844 627.352H211.344V632H209V620.625H216.406V622.523H211.344V625.461H215.844V627.352ZM217.094 627.695C217.094 626.857 217.255 626.109 217.578 625.453C217.901 624.797 218.365 624.289 218.969 623.93C219.578 623.57 220.284 623.391 221.086 623.391C222.227 623.391 223.156 623.74 223.875 624.438C224.599 625.135 225.003 626.083 225.086 627.281L225.102 627.859C225.102 629.156 224.74 630.198 224.016 630.984C223.292 631.766 222.32 632.156 221.102 632.156C219.883 632.156 218.909 631.766 218.18 630.984C217.456 630.203 217.094 629.141 217.094 627.797V627.695ZM219.352 627.859C219.352 628.661 219.503 629.276 219.805 629.703C220.107 630.125 220.539 630.336 221.102 630.336C221.648 630.336 222.076 630.128 222.383 629.711C222.69 629.289 222.844 628.617 222.844 627.695C222.844 626.909 222.69 626.299 222.383 625.867C222.076 625.435 221.643 625.219 221.086 625.219C220.534 625.219 220.107 625.435 219.805 625.867C219.503 626.294 219.352 626.958 219.352 627.859ZM231.242 625.664C230.935 625.622 230.664 625.602 230.43 625.602C229.576 625.602 229.016 625.891 228.75 626.469V632H226.492V623.547H228.625L228.688 624.555C229.141 623.779 229.768 623.391 230.57 623.391C230.82 623.391 231.055 623.424 231.273 623.492L231.242 625.664ZM234.453 623.547L234.523 624.492C235.122 623.758 235.932 623.391 236.953 623.391C238.042 623.391 238.789 623.82 239.195 624.68C239.789 623.82 240.635 623.391 241.734 623.391C242.651 623.391 243.333 623.659 243.781 624.195C244.229 624.727 244.453 625.529 244.453 626.602V632H242.188V626.609C242.188 626.13 242.094 625.781 241.906 625.562C241.719 625.339 241.388 625.227 240.914 625.227C240.237 625.227 239.768 625.549 239.508 626.195L239.516 632H237.258V626.617C237.258 626.128 237.161 625.773 236.969 625.555C236.776 625.336 236.448 625.227 235.984 625.227C235.344 625.227 234.88 625.492 234.594 626.023V632H232.336V623.547H234.453Z" fill="black"/>
<path d="M160.102 541.656H155.992L155.211 544H152.719L156.953 532.625H159.125L163.383 544H160.891L160.102 541.656ZM156.625 539.758H159.469L158.039 535.5L156.625 539.758ZM163.945 539.711C163.945 538.393 164.24 537.344 164.828 536.562C165.422 535.781 166.232 535.391 167.258 535.391C168.081 535.391 168.76 535.698 169.297 536.312V532H171.562V544H169.523L169.414 543.102C168.852 543.805 168.128 544.156 167.242 544.156C166.247 544.156 165.448 543.766 164.844 542.984C164.245 542.198 163.945 541.107 163.945 539.711ZM166.203 539.875C166.203 540.667 166.341 541.273 166.617 541.695C166.893 542.117 167.294 542.328 167.82 542.328C168.518 542.328 169.01 542.034 169.297 541.445V538.109C169.016 537.521 168.529 537.227 167.836 537.227C166.747 537.227 166.203 538.109 166.203 539.875ZM172.961 539.711C172.961 538.393 173.255 537.344 173.844 536.562C174.438 535.781 175.247 535.391 176.273 535.391C177.096 535.391 177.776 535.698 178.312 536.312V532H180.578V544H178.539L178.43 543.102C177.867 543.805 177.143 544.156 176.258 544.156C175.263 544.156 174.464 543.766 173.859 542.984C173.26 542.198 172.961 541.107 172.961 539.711ZM175.219 539.875C175.219 540.667 175.357 541.273 175.633 541.695C175.909 542.117 176.31 542.328 176.836 542.328C177.534 542.328 178.026 542.034 178.312 541.445V538.109C178.031 537.521 177.544 537.227 176.852 537.227C175.763 537.227 175.219 538.109 175.219 539.875ZM188.43 535.547L188.5 536.492C189.099 535.758 189.909 535.391 190.93 535.391C192.018 535.391 192.766 535.82 193.172 536.68C193.766 535.82 194.612 535.391 195.711 535.391C196.628 535.391 197.31 535.659 197.758 536.195C198.206 536.727 198.43 537.529 198.43 538.602V544H196.164V538.609C196.164 538.13 196.07 537.781 195.883 537.562C195.695 537.339 195.365 537.227 194.891 537.227C194.214 537.227 193.745 537.549 193.484 538.195L193.492 544H191.234V538.617C191.234 538.128 191.138 537.773 190.945 537.555C190.753 537.336 190.424 537.227 189.961 537.227C189.32 537.227 188.857 537.492 188.57 538.023V544H186.312V535.547H188.43ZM204.062 544.156C202.823 544.156 201.812 543.776 201.031 543.016C200.255 542.255 199.867 541.242 199.867 539.977V539.758C199.867 538.909 200.031 538.151 200.359 537.484C200.688 536.812 201.151 536.297 201.75 535.938C202.354 535.573 203.042 535.391 203.812 535.391C204.969 535.391 205.878 535.755 206.539 536.484C207.206 537.214 207.539 538.247 207.539 539.586V540.508H202.156C202.229 541.06 202.448 541.503 202.812 541.836C203.182 542.169 203.648 542.336 204.211 542.336C205.081 542.336 205.76 542.021 206.25 541.391L207.359 542.633C207.021 543.112 206.562 543.487 205.984 543.758C205.406 544.023 204.766 544.156 204.062 544.156ZM203.805 537.219C203.357 537.219 202.992 537.37 202.711 537.672C202.435 537.974 202.258 538.406 202.18 538.969H205.32V538.789C205.31 538.289 205.174 537.904 204.914 537.633C204.654 537.357 204.284 537.219 203.805 537.219ZM210.945 535.547L211.016 536.492C211.615 535.758 212.424 535.391 213.445 535.391C214.534 535.391 215.281 535.82 215.688 536.68C216.281 535.82 217.128 535.391 218.227 535.391C219.143 535.391 219.826 535.659 220.273 536.195C220.721 536.727 220.945 537.529 220.945 538.602V544H218.68V538.609C218.68 538.13 218.586 537.781 218.398 537.562C218.211 537.339 217.88 537.227 217.406 537.227C216.729 537.227 216.26 537.549 216 538.195L216.008 544H213.75V538.617C213.75 538.128 213.654 537.773 213.461 537.555C213.268 537.336 212.94 537.227 212.477 537.227C211.836 537.227 211.372 537.492 211.086 538.023V544H208.828V535.547H210.945ZM230.305 539.852C230.305 541.206 230.016 542.263 229.438 543.023C228.859 543.779 228.052 544.156 227.016 544.156C226.099 544.156 225.367 543.805 224.82 543.102L224.719 544H222.688V532H224.945V536.305C225.466 535.695 226.151 535.391 227 535.391C228.031 535.391 228.839 535.771 229.422 536.531C230.01 537.286 230.305 538.352 230.305 539.727V539.852ZM228.047 539.688C228.047 538.833 227.911 538.211 227.641 537.82C227.37 537.424 226.966 537.227 226.43 537.227C225.711 537.227 225.216 537.521 224.945 538.109V541.445C225.221 542.039 225.721 542.336 226.445 542.336C227.174 542.336 227.654 541.977 227.883 541.258C227.992 540.914 228.047 540.391 228.047 539.688ZM235.594 544.156C234.354 544.156 233.344 543.776 232.562 543.016C231.786 542.255 231.398 541.242 231.398 539.977V539.758C231.398 538.909 231.562 538.151 231.891 537.484C232.219 536.812 232.682 536.297 233.281 535.938C233.885 535.573 234.573 535.391 235.344 535.391C236.5 535.391 237.409 535.755 238.07 536.484C238.737 537.214 239.07 538.247 239.07 539.586V540.508H233.688C233.76 541.06 233.979 541.503 234.344 541.836C234.714 542.169 235.18 542.336 235.742 542.336C236.612 542.336 237.292 542.021 237.781 541.391L238.891 542.633C238.552 543.112 238.094 543.487 237.516 543.758C236.938 544.023 236.297 544.156 235.594 544.156ZM235.336 537.219C234.888 537.219 234.523 537.37 234.242 537.672C233.966 537.974 233.789 538.406 233.711 538.969H236.852V538.789C236.841 538.289 236.706 537.904 236.445 537.633C236.185 537.357 235.815 537.219 235.336 537.219ZM245.109 537.664C244.802 537.622 244.531 537.602 244.297 537.602C243.443 537.602 242.883 537.891 242.617 538.469V544H240.359V535.547H242.492L242.555 536.555C243.008 535.779 243.635 535.391 244.438 535.391C244.688 535.391 244.922 535.424 245.141 535.492L245.109 537.664Z" fill="black"/>
</g>
<defs>
<filter id="filter0_d" x="59" y="342" width="277" height="56" filterUnits="userSpaceOnUse" color-interpolation-filters="sRGB">
<feFlood flood-opacity="0" result="BackgroundImageFix"/>
<feColorMatrix in="SourceAlpha" type="matrix" values="0 0 0 0 0 0 0 0 0 0 0 0 0 0 0 0 0 0 127 0"/>
<feOffset dy="1"/>
<feGaussianBlur stdDeviation="1"/>
<feColorMatrix type="matrix" values="0 0 0 0 0 0 0 0 0 0 0 0 0 0 0 0 0 0 0.25 0"/>
<feBlend mode="normal" in2="BackgroundImageFix" result="effect1_dropShadow"/>
<feBlend mode="normal" in="SourceGraphic" in2="effect1_dropShadow" result="shape"/>
</filter>
<filter id="filter1_d" x="59" y="412" width="277" height="56" filterUnits="userSpaceOnUse" color-interpolation-filters="sRGB">
<feFlood flood-opacity="0" result="BackgroundImageFix"/>
<feColorMatrix in="SourceAlpha" type="matrix" values="0 0 0 0 0 0 0 0 0 0 0 0 0 0 0 0 0 0 127 0"/>
<feOffset dy="1"/>
<feGaussianBlur stdDeviation="1"/>
<feColorMatrix type="matrix" values="0 0 0 0 0 0 0 0 0 0 0 0 0 0 0 0 0 0 0.25 0"/>
<feBlend mode="normal" in2="BackgroundImageFix" result="effect1_dropShadow"/>
<feBlend mode="normal" in="SourceGraphic" in2="effect1_dropShadow" result="shape"/>
</filter>
<filter id="filter2_d" x="129" y="599" width="136" height="56" filterUnits="userSpaceOnUse" color-interpolation-filters="sRGB">
<feFlood flood-opacity="0" result="BackgroundImageFix"/>
<feColorMatrix in="SourceAlpha" type="matrix" values="0 0 0 0 0 0 0 0 0 0 0 0 0 0 0 0 0 0 127 0"/>
<feOffset dy="1"/>
<feGaussianBlur stdDeviation="1"/>
<feColorMatrix type="matrix" values="0 0 0 0 0 0 0 0 0 0 0 0 0 0 0 0 0 0 0.25 0"/>
<feBlend mode="normal" in2="BackgroundImageFix" result="effect1_dropShadow"/>
<feBlend mode="normal" in="SourceGraphic" in2="effect1_dropShadow" result="shape"/>
</filter>
<filter id="filter3_d" x="129" y="511" width="136" height="56" filterUnits="userSpaceOnUse" color-interpolation-filters="sRGB">
<feFlood flood-opacity="0" result="BackgroundImageFix"/>
<feColorMatrix in="SourceAlpha" type="matrix" values="0 0 0 0 0 0 0 0 0 0 0 0 0 0 0 0 0 0 127 0"/>
<feOffset dy="1"/>
<feGaussianBlur stdDeviation="1"/>
<feColorMatrix type="matrix" values="0 0 0 0 0 0 0 0 0 0 0 0 0 0 0 0 0 0 0.25 0"/>
<feBlend mode="normal" in2="BackgroundImageFix" result="effect1_dropShadow"/>
<feBlend mode="normal" in="SourceGraphic" in2="effect1_dropShadow" result="shape"/>
</filter>
<clipPath id="clip0">
<rect x="10" y="12" width="375" height="812" rx="20" fill="white"/>
</clipPath>
</defs>
</svg>
